<?xml version="1.0" encoding="UTF-8" standalone="no"?>
<!-- Created with Inkscape (http://www.inkscape.org/) -->

<svg
   width="25.739056mm"
   height="50.237953mm"
   viewBox="0 0 25.739056 50.237953"
   version="1.1"
   id="svg2267"
   inkscape:version="1.1 (c4e8f9e, 2021-05-24)"
   sodipodi:docname="Argentina.svg"
   xmlns:inkscape="http://www.inkscape.org/namespaces/inkscape"
   xmlns:sodipodi="http://sodipodi.sourceforge.net/DTD/sodipodi-0.dtd"
   xmlns="http://www.w3.org/2000/svg"
   xmlns:svg="http://www.w3.org/2000/svg">
  <sodipodi:namedview
     id="namedview2269"
     pagecolor="#ffffff"
     bordercolor="#666666"
     borderopacity="1.0"
     inkscape:pageshadow="2"
     inkscape:pageopacity="0.0"
     inkscape:pagecheckerboard="0"
     inkscape:document-units="mm"
     showgrid="false"
     fit-margin-top="0"
     fit-margin-left="0"
     fit-margin-right="0"
     fit-margin-bottom="0"
     inkscape:zoom="0.67882997"
     inkscape:cx="-10.311861"
     inkscape:cy="228.33406"
     inkscape:window-width="1312"
     inkscape:window-height="942"
     inkscape:window-x="0"
     inkscape:window-y="25"
     inkscape:window-maximized="0"
     inkscape:current-layer="layer1" />
  <defs
     id="defs2264" />
  <g
     inkscape:label="Layer 1"
     inkscape:groupmode="layer"
     id="layer1"
     transform="translate(-107.70104,-87.927912)">
    <g
       id="g13943"
       transform="matrix(0.70494222,0,0,-0.70494222,133.17752,94.355369)"
       style="fill:#aa0000;stroke:#555151;stroke-width:0.567422;stroke-miterlimit:4;stroke-dasharray:none;stroke-opacity:1">
      <path
         d="M 0,0 0.013,0.176 0.089,0.298 0.084,0.42 -0.052,0.691 -0.19,0.931 -0.264,1.335 -0.312,1.488 -0.428,1.529 -0.531,1.663 -0.663,1.675 -0.725,1.726 -0.788,1.769 -0.881,1.756 -0.961,1.678 -1.108,1.675 -1.201,1.643 -1.311,1.572 -1.415,1.604 -1.48,1.666 -1.621,1.667 -1.65,0.842 -1.733,0.259 -1.873,-0.173 -2,-0.403 -2.114,-0.432 -2.196,-0.5 l -0.051,-0.11 -0.092,-0.091 -0.136,-0.073 -0.074,-0.08 -0.012,-0.087 -0.129,-0.057 -0.249,-0.024 -0.146,-0.071 -0.043,-0.114 -0.084,-0.091 -0.123,-0.067 -0.059,-0.112 0.007,-0.155 -0.071,-0.134 -0.147,-0.112 -0.136,-0.003 -0.125,0.106 -0.167,0.07 -0.209,0.035 -0.175,-0.026 -0.14,-0.088 -0.124,-0.14 -0.109,-0.191 -0.12,-0.031 -0.132,0.126 -0.168,0.04 -0.203,-0.05 -0.162,0.017 -0.12,0.085 -0.184,0.01 -0.249,-0.066 -0.505,0.076 -0.76,0.221 -0.643,0.083 -0.788,-0.079 -0.067,0.229 0.042,0.124 0.128,0.093 0.08,0.105 0.033,0.118 0.088,0.09 0.145,0.062 0.061,0.062 -0.022,0.064 0.03,0.055 0.083,0.049 0.048,0.076 0.011,0.105 0.031,0.052 0.055,0.039 0.007,0.072 -0.032,0.224 0.004,0.183 0.039,0.142 0.049,0.087 0.034,0.021 0.032,0.051 0.012,0.086 0.052,0.08 0.252,0.165 0.094,0.089 0.009,0.081 0.037,0.11 0.15,0.238 0.046,0.11 0.004,0.056 0.053,0.056 0.179,0.132 0.099,0.124 0.015,0.115 L -6.986,1.994 -7.089,2.142 -7.41,2.509 -7.66,2.676 -7.979,2.813 -8.188,2.857 -8.29,2.81 -8.392,2.848 -8.496,2.972 -8.67,3.069 l -0.37,0.109 -0.836,0.427 -0.335,0.208 -0.113,0.126 -0.313,0.23 -0.512,0.33 -0.394,0.16 -0.274,-0.009 -0.439,0.096 -0.604,0.2 -0.349,0.195 -0.093,0.188 -0.223,0.19 -0.354,0.188 -0.183,0.124 -0.014,0.061 -0.105,0.077 -0.195,0.096 -0.215,0.164 -0.234,0.233 -0.25,0.359 -0.267,0.487 -0.286,0.327 -0.305,0.169 -0.152,0.111 V 7.97 l -0.045,0.052 -0.026,0.03 -0.144,0.109 -0.127,0.208 -0.034,0.095 -0.017,0.004 -0.765,-0.006 -0.737,-0.008 -0.076,-0.043 h -0.105 l -0.078,0.041 -0.076,-0.003 -0.11,-0.041 -0.098,-0.082 -0.282,-0.554 -0.139,-0.236 -0.103,-0.212 -0.076,-0.363 -0.031,-0.061 -0.088,0.126 -0.129,0.332 -0.058,0.189 -0.083,0.215 -0.148,0.269 -0.171,0.082 -0.106,0.027 -0.152,0.051 -0.27,0.065 -0.118,0.013 -0.771,0.008 -0.061,0.007 -0.302,-0.029 -0.154,0.019 -0.16,0.152 -0.359,0.263 -0.072,0.084 -0.137,0.055 -0.083,0.007 -0.049,-0.053 -0.062,-0.22 -0.073,-0.2 -0.077,-0.114 -0.257,-0.084 -0.238,-0.089 -0.131,-0.02 -0.07,-0.1 -0.031,-0.14 -0.059,-0.125 -0.345,-0.189 -0.076,-0.08 -0.04,-0.187 L -24.276,7.002 -24.335,6.911 -24,6.571 -24.146,6.11 -24.379,5.372 -24.56,4.801 -24.59,4.725 -24.627,4.612 -25.016,4.45 -25.584,4.214 -25.875,4.09 -26.241,3.931 -26.33,3.8 l -0.106,-0.071 -0.117,-0.09 -0.044,-0.1 -0.109,-0.062 -0.098,-0.225 V 3.08 l 0.063,-0.118 0.11,-0.05 0.034,-0.141 0.035,-0.099 0.079,-0.078 -0.02,-0.063 -0.064,-0.047 -0.119,-0.026 -0.08,-0.142 -0.092,-0.35 -0.016,-0.126 0.106,-0.319 0.056,-0.171 0.152,-0.623 0.022,-0.17 -0.208,-0.237 -0.083,-0.144 -0.03,-0.128 0.001,-0.101 0.019,-0.093 0.173,-0.292 0.202,-0.263 0.099,-0.137 v -0.185 l -0.049,-0.106 -0.107,-0.039 -0.239,-0.072 -0.098,-0.106 -0.109,-0.015 -0.104,0.085 -0.109,-0.022 -0.138,-0.074 -0.052,-0.18 -0.12,-0.306 -0.104,-0.085 -0.077,-0.236 -0.138,-0.336 -0.066,-0.203 -0.035,-0.149 -0.139,-0.095 -0.161,-0.188 -0.125,-0.185 -0.049,-0.053 -0.094,-0.016 -0.069,-0.165 -0.234,-0.249 -0.056,-0.289 -0.085,-0.155 -0.015,-0.279 -0.129,-0.511 -0.024,-0.113 -0.131,-0.089 -0.172,-0.198 -0.056,-0.146 0.079,-0.433 0.099,-0.44 0.007,-0.206 -0.039,-0.28 -0.026,-0.122 0.066,-0.05 0.109,-0.032 0.034,-0.109 -0.079,-0.075 -0.034,-0.134 -0.089,-0.152 -0.263,-0.058 -0.093,0.053 -0.029,-0.049 0.015,-0.107 -0.059,-0.128 -0.136,-0.341 -0.091,-0.309 -0.052,-0.136 0.022,-0.113 0.044,-0.066 0.005,-0.059 -0.075,-0.075 -0.069,-0.12 -0.073,-0.016 -0.079,0.033 -0.084,-0.071 -0.017,-0.148 -0.046,-0.187 -0.022,-0.22 -0.034,-0.281 0.108,-0.193 0.136,-0.349 0.102,-0.083 0.113,0.005 0.089,-0.071 0.05,-0.082 -0.066,-0.146 -0.117,-0.023 -0.015,-0.082 0.035,-0.185 0.044,-0.181 0.112,-0.086 0.051,-0.241 0.109,-0.082 -0.014,-0.31 0.11,-0.363 0.116,-0.105 0.055,-0.049 -0.037,-0.159 -0.092,-0.127 -0.02,-0.204 0.035,-0.148 0.117,-0.14 0.092,-0.016 0.132,0.057 0.138,-0.066 0.019,-0.121 0.02,-0.109 -0.074,-0.144 -0.079,-0.265 -0.021,-0.262 0.023,-0.402 0.036,-0.31 0.007,-0.197 0.009,-0.088 -0.049,-0.062 -0.12,-0.031 -0.102,-0.013 -0.089,-0.05 -0.02,-0.099 -0.069,-0.166 -0.072,-0.124 -0.125,-0.18 -0.08,-0.186 -0.064,-0.122 0.006,-0.085 -0.046,-0.164 -0.047,-0.135 -0.099,-0.459 -0.133,-0.095 -0.105,-0.048 -0.054,-0.062 0.041,-0.124 0.112,-0.037 0.039,-0.1 -0.015,-0.157 0.074,-0.146 -0.007,-0.176 0.072,-0.333 -0.065,-0.219 0.022,-0.189 -0.002,-0.186 -0.094,-0.147 -0.192,-0.028 -0.106,-0.135 -0.181,-0.147 -0.02,-0.118 -0.029,-0.106 -0.074,-0.04 h -0.113 l -0.094,-0.017 -0.132,-0.138 -0.14,-0.076 -0.032,-0.112 0.012,-0.136 -0.074,-0.085 -0.094,-0.158 -0.059,-0.169 0.059,-0.159 0.065,-0.282 0.01,-0.119 -0.082,-0.235 -0.066,-0.151 0.064,-0.193 0.054,-0.108 -0.051,-0.237 -0.043,-0.15 0.035,-0.272 0.129,-0.309 0.122,-0.273 0.019,-0.319 0.031,-0.253 0.059,-0.275 0.124,-0.108 0.093,-0.092 -0.02,-0.132 -0.069,-0.161 -0.098,-0.12 -0.245,-0.04 -0.199,-0.109 -0.16,-0.076 -0.122,-0.091 -0.087,-0.097 -0.043,-0.107 0.029,-0.463 -0.019,-0.172 -0.082,-0.243 -0.077,-0.197 -0.032,-0.058 -0.01,-0.087 -0.015,-0.081 -0.086,-0.019 -0.121,0.036 -0.07,-0.023 -0.049,-0.064 0.042,-0.151 0.045,-0.268 0.062,-0.114 -0.017,-0.09 -0.023,-0.194 -0.081,-0.157 h -0.107 l -0.069,-0.064 -0.03,-0.11 0.033,-0.144 0.14,-0.118 0.05,-0.076 -0.025,-0.099 -0.109,-0.041 -0.064,-0.081 -0.061,-0.182 -0.082,-0.205 -0.087,-0.152 -0.017,-0.209 0.124,-0.221 -0.014,-0.218 -0.009,-0.639 -0.012,-0.217 0.038,-0.36 -0.048,-0.099 -0.024,-0.094 0.121,-0.262 0.134,-0.425 0.036,-0.169 -0.02,-0.119 -0.18,-0.1 -0.151,-0.042 -0.088,0.072 -0.06,-0.031 -0.069,-0.124 -0.079,-0.1 -0.029,-0.101 0.084,-0.131 0.044,-0.249 -0.094,-0.107 -0.069,-0.118 0.025,-0.156 0.029,-0.279 -0.059,-0.466 0.08,-0.165 0.086,-0.079 0.282,-0.095 0.211,-0.046 0.056,-0.155 -0.024,-0.126 -0.102,-0.061 -0.153,-0.054 v -0.203 l 0.131,-0.191 0.148,-0.138 0.032,-0.125 -0.008,-0.127 -0.104,-0.107 0.142,-0.231 0.065,-0.157 -0.065,-0.121 -0.092,-0.181 -0.082,-0.087 10e-4,-0.099 -0.034,-0.2 -0.008,-0.197 0.027,-0.117 0.893,-0.092 0.204,-0.036 0.112,-0.117 -0.016,-0.147 -0.111,-0.157 -0.072,-0.293 -0.176,-0.05 -0.175,0.079 -0.19,-0.027 -0.164,-0.019 -0.237,-0.008 -0.315,-0.038 -0.192,0.044 -0.017,-0.109 0.056,-0.186 0.414,-0.059 0.391,-0.108 0.117,-0.198 0.159,-0.223 0.161,-0.14 0.009,-0.227 -0.255,-0.236 -0.032,-0.168 -0.334,-0.049 -0.096,-0.099 -0.048,-0.326 0.04,-0.258 0.127,-0.089 0.088,-0.169 -0.096,-0.198 -0.225,-0.137 -0.12,-0.131 0.075,-0.103 0.102,-0.166 0.028,-0.09 0.056,-0.244 0.065,-0.341 -0.008,-0.165 -0.06,-0.123 -0.223,-0.196 -0.151,-0.089 -0.03,-0.241 -0.012,-0.179 0.016,-0.163 0.097,-0.129 -0.008,-0.131 -0.133,-0.029 -0.114,-0.062 -0.111,-0.231 -0.324,-0.237 -0.114,-0.106 0.008,-0.182 -0.128,-0.26 -0.108,-0.226 -0.083,-0.212 0.016,-0.223 0.183,-0.097 0.144,-0.217 0.063,-0.275 -0.111,-0.315 -0.259,-0.12 -0.153,-0.134 -0.046,-0.102 0.041,-0.331 -0.011,-0.156 -0.041,-0.146 -0.066,-0.114 -0.14,-0.127 -0.247,-0.111 -0.21,-0.076 -0.094,-0.087 -0.11,-0.192 -0.098,-0.213 0.024,-0.263 -0.589,-0.031 -0.039,-0.196 -0.128,-0.155 -0.04,-0.278 0.13,-0.271 0.062,-0.226 -0.106,-0.274 0.038,-0.28 0.011,-0.225 0.207,-0.249 0.136,-0.309 0.068,-0.262 0.041,-0.203 0.054,-0.124 0.085,-0.141 0.039,-0.162 0.127,-0.052 0.229,0.151 0.162,0.103 0.112,0.037 0.331,-0.024 0.2,0.096 0.09,-0.011 0.122,-0.054 0.094,-0.112 0.072,-0.256 0.044,-0.287 -0.056,-0.294 -0.094,-0.063 -0.032,-0.084 0.032,-0.179 0.103,-0.127 -0.002,-0.181 -0.114,-0.41 -0.075,-0.169 0.132,-0.191 0.119,-0.17 0.238,-0.127 0.196,-0.18 0.135,-0.148 -0.031,-0.202 0.094,-0.062 0.365,-0.004 0.545,-0.007 0.852,-0.009 0.831,-0.01 0.944,-0.015 0.447,-0.162 0.405,-0.146 h 0.509 l 0.509,-0.175 0.378,-0.114 0.227,-0.043 0.232,-0.042 0.032,-0.16 0.09,0.12 -0.181,0.265 -0.356,0.446 -0.408,0.718 -0.088,0.09 -0.121,0.099 -0.266,-0.063 -0.241,0.148 -0.173,-0.023 -0.102,0.062 0.19,0.06 0.257,-0.004 0.288,0.034 0.042,0.139 0.011,0.102 -0.066,0.343 -0.14,0.493 -0.104,0.246 -0.121,-0.029 -0.151,-0.095 -0.013,0.042 0.223,0.184 0.145,0.206 0.024,0.266 0.093,0.402 0.082,0.2 0.19,0.276 0.342,0.239 0.29,0.132 0.224,0.072 0.079,0.087 -0.094,0.157 -0.106,0.13 -0.118,0.063 -0.279,0.051 -0.411,-0.036 0.121,0.081 0.454,0.078 0.042,0.171 -0.062,0.163 0.009,0.096 0.178,-0.269 0.147,-0.261 0.15,-0.152 0.266,-0.147 0.201,0.032 0.419,0.252 0.159,0.152 0.077,0.143 0.219,1.211 -0.057,0.089 0.015,0.134 0.395,0.688 0.367,0.319 0.239,0.293 0.177,0.139 0.451,0.243 0.337,0.239 0.367,0.179 0.679,0.595 0.133,0.15 0.056,0.097 0.185,0.082 -0.097,0.203 -0.127,0.06 -0.295,-0.06 -0.135,-0.011 -0.096,0.071 0.334,0.1 0.278,0.187 0.13,0.146 0.071,0.16 0.067,0.511 -0.056,0.201 -0.153,0.228 -0.261,0.144 -1.178,0.11 -0.228,0.09 -1.101,1.025 -0.216,0.252 -0.103,0.22 -0.041,0.172 -0.041,0.231 0.017,0.258 0.077,0.186 0.296,0.436 0.244,0.446 0.571,0.715 0.107,0.067 0.537,0.1 0.093,0.056 0.072,0.089 0.263,0.188 0.285,0.153 0.781,-0.094 0.214,-0.002 0.06,0.14 0.012,0.154 -0.179,0.177 0.091,0.3 0.518,0.408 0.128,0.258 0.044,0.179 -0.077,0.269 0.126,0.241 -0.119,0.576 0.038,0.346 0.056,0.128 0.113,0.109 0.369,0.501 0.263,0.229 0.225,0.117 0.511,0.167 0.102,0.075 0.102,0.122 -0.11,0.043 -0.111,-0.004 -0.339,0.092 -0.718,0.327 0.102,0.201 0.286,0.073 0.292,0.22 0.294,0.039 0.295,-0.127 0.138,-0.161 0.05,-0.238 0.162,-0.23 0.173,-0.044 0.618,0.166 0.086,0.13 0.05,0.108 0.041,0.306 -0.003,0.323 -0.061,0.268 -0.099,0.205 -0.081,0.077 -0.119,0.085 -0.176,-0.024 -0.344,-0.126 -0.262,-0.077 -0.044,-0.07 0.346,-0.033 -0.002,-0.19 -0.07,-0.09 -0.295,-0.057 -0.282,-0.027 -0.272,0.038 -0.006,0.131 0.091,0.123 0.022,0.063 -0.047,0.034 -0.152,-0.015 -0.14,0.088 -0.358,0.128 -0.16,0.129 -0.131,0.286 0.094,0.486 -0.02,0.383 -0.198,0.706 -0.049,0.286 0.006,0.34 0.033,0.142 0.115,0.161 0.276,0.158 0.085,-0.01 0.118,-0.043 -0.028,-0.08 -0.06,-0.043 0.419,-0.087 0.429,-0.146 0.47,-0.183 0.632,-0.304 0.273,-0.022 0.739,0.017 0.458,0.092 0.291,0.133 0.728,0.335 0.168,0.164 0.1,0.298 -0.266,0.461 -0.06,0.219 0.045,0.34 0.141,0.521 0.067,0.119 0.059,0.031 0.222,0.117 0.088,0.544 0.01,0.226 -0.097,0.063 -0.088,0.108 0.227,0.014 -0.132,0.136 -0.149,0.1 -0.155,0.039 -0.077,0.196 0.062,0.343 -0.128,0.284 0.071,0.11 0.263,-0.027 0.221,-0.223 0.395,-0.09 0.444,-0.077 0.396,0.037 0.489,-0.025 0.376,0.04 1.942,0.285 0.275,0.088 1.208,0.259 1.495,0.498 0.964,0.556 0.178,0.176 0.072,0.368 0.201,0.343 0.557,0.62 0.65,1.014 0.1,0.22 0.007,0.24 -0.054,0.637 -0.035,0.077 -0.058,0.088 -0.339,-0.013 -0.251,0.115 -0.341,0.314 -0.127,0.241 -0.072,0.26 0.039,0.369 0.352,0.438 -0.021,0.294 -0.241,0.355 -0.441,0.345 -0.389,0.254 -0.939,0.43 -0.245,0.309 -0.085,0.15 -0.107,0.327 0.091,0.067 0.071,0.021 0.078,0.121 -0.03,0.268 -0.037,0.141 -0.049,0.187 -0.133,0.294 -0.03,0.18 0.167,0.761 0.054,0.351 0.088,0.079 0.121,-0.022 0.106,0.009 0.089,0.128 0.054,0.111 -0.088,0.793 0.034,0.185 0.141,0.299 0.006,0.146 -0.082,0.128 -0.022,0.131 0.037,0.135 -0.006,0.13 -0.052,0.124 0.038,0.102 0.13,0.082 0.096,0.124 0.064,0.168 0.033,0.128 0.002,0.089 -0.04,0.083 -0.079,0.078 0.037,0.155 0.153,0.234 0.099,0.206 0.045,0.181 -0.003,0.144 -0.05,0.111 0.021,0.075 0.094,0.04 0.043,0.116 -0.014,0.29 -0.098,0.239 0.075,0.19 0.214,0.217 0.111,0.177 0.01,0.134 0.066,0.077 0.082,0.095 0.286,0.209 0.158,0.185 0.031,0.163 0.137,0.147 0.244,0.129 0.273,0.239 0.299,0.347 0.183,0.256 0.064,0.165 0.118,0.127 0.171,0.089 0.149,0.186 0.128,0.283 0.175,0.226 0.222,0.167 0.123,0.137 0.027,0.111 0.063,0.07 0.098,0.03 0.048,0.058 -0.003,0.085 0.027,0.058 0.057,0.031 0.095,-0.011 0.134,-0.053 0.081,0.01 0.028,0.071 -0.035,0.082 -0.099,0.093 0.037,0.1 0.259,0.162 0.19,0.061 0.121,0.1 0.115,0.159 0.185,0.112 0.257,0.062 0.068,0.06 -0.009,0.077 0.052,0.055 0.152,0.04 0.082,0.075 0.014,0.11 0.049,0.102 0.084,0.094 0.094,0.036 0.103,-0.025 0.098,0.036 0.09,0.096 0.11,0.044 0.127,-0.006 0.066,0.022 0.218,0.043 0.121,0.082 0.099,0.178 0.088,0.07 0.077,-0.041 0.133,0.06 0.189,0.159 0.037,0.003 0.139,0.075 0.144,0.276 0.074,0.184 -0.018,0.152 -0.046,0.108 0.015,0.158 z m -14.787,-25.5 -0.108,0.05 -0.228,0.054 0.018,-0.05 0.075,-0.119 0.223,-0.128 0.094,-0.016 -0.017,0.133 z m -3.838,-35.645 -0.041,0.032 -0.091,0.02 -0.208,-10e-4 -0.394,-0.044 -0.199,0.059 -0.058,-0.092 -0.079,-0.052 -0.116,-0.003 -0.123,-0.129 0.047,-0.091 0.17,-0.1 0.232,0.157 0.1,-10e-4 0.236,0.11 0.531,0.009 0.103,-0.044 0.251,0.106 0.031,0.107 -0.121,0.005 z m -2.414,0.276 -0.682,-0.054 -0.444,0.137 -0.439,0.163 -0.408,0.23 -0.376,0.318 -0.352,0.225 -0.369,0.186 -0.406,0.243 -0.376,0.317 -0.317,0.333 -0.331,0.308 -0.143,0.108 -0.123,0.134 -0.245,0.603 -0.031,0.03 -0.419,0.028 -0.172,0.083 -0.057,0.097 -0.001,0.109 0.075,0.156 0.087,0.142 0.177,0.087 0.168,-0.151 -0.069,0.239 -0.109,0.204 -0.42,0.501 -0.106,0.103 -0.003,-0.724 -0.004,-0.716 -0.003,-0.672 -0.002,-0.673 -0.003,-0.654 -0.003,-0.673 -0.014,-0.756 -0.01,-0.565 0.062,0.049 0.231,-0.006 0.287,0.05 0.202,-0.003 0.385,-0.077 0.386,-0.051 1.203,-0.088 0.355,-0.053 0.546,-0.221 0.211,-0.048 0.203,0.058 0.202,0.079 0.207,0.005 0.201,0.047 0.193,0.094 0.202,0.024 0.216,-0.041 0.215,-0.005 0.239,0.034 0.226,0.092 0.169,0.223 0.133,0.277 -0.132,0.1 z"
         style="fill:#aa0000;stroke:#555151;stroke-width:0.567422;stroke-linecap:round;stroke-linejoin:round;stroke-miterlimit:4;stroke-dasharray:none;stroke-opacity:1"
         id="path13945" />
    </g>
  </g>
</svg>
