<?xml version="1.0" encoding="UTF-8" standalone="no"?>
<!-- Created with Inkscape (http://www.inkscape.org/) -->

<svg
   width="39.847366mm"
   height="40.758072mm"
   viewBox="0 0 39.847366 40.758072"
   version="1.1"
   id="svg2413"
   inkscape:version="1.1 (c4e8f9e, 2021-05-24)"
   sodipodi:docname="Brazil.svg"
   xmlns:inkscape="http://www.inkscape.org/namespaces/inkscape"
   xmlns:sodipodi="http://sodipodi.sourceforge.net/DTD/sodipodi-0.dtd"
   xmlns="http://www.w3.org/2000/svg"
   xmlns:svg="http://www.w3.org/2000/svg">
  <sodipodi:namedview
     id="namedview2415"
     pagecolor="#ffffff"
     bordercolor="#666666"
     borderopacity="1.0"
     inkscape:pageshadow="2"
     inkscape:pageopacity="0.0"
     inkscape:pagecheckerboard="0"
     inkscape:document-units="mm"
     showgrid="false"
     fit-margin-top="0"
     fit-margin-left="0"
     fit-margin-right="0"
     fit-margin-bottom="0"
     inkscape:zoom="0.67882997"
     inkscape:cx="-42.720565"
     inkscape:cy="512.64679"
     inkscape:window-width="1312"
     inkscape:window-height="942"
     inkscape:window-x="0"
     inkscape:window-y="25"
     inkscape:window-maximized="0"
     inkscape:current-layer="layer1" />
  <defs
     id="defs2410" />
  <g
     inkscape:label="Layer 1"
     inkscape:groupmode="layer"
     id="layer1"
     transform="translate(-115.97323,-12.785307)">
    <g
       id="g13783"
       transform="matrix(0.5576377,0,0,-0.5576377,146.17027,41.781456)"
       style="fill:#aa0000;stroke:#555151;stroke-width:0.717312;stroke-miterlimit:4;stroke-dasharray:none;stroke-opacity:1">
      <path
         d="m 0,0 -0.052,0.058 -0.04,0.016 -0.057,-0.079 -0.155,-0.106 0.072,-0.076 0.18,0.041 0.117,0.045 0.104,-0.004 -0.056,0.051 z M 9.974,18.985 9.944,18.812 9.76,18.666 9.767,18.55 l 0.07,0.04 0.258,0.19 0.002,0.037 -0.026,0.088 z m -17.826,-24.819 -0.227,-0.229 0.113,-0.24 0.034,0.024 0.03,0.042 0.066,0.128 0.061,0.181 z m 5.901,4.623 -0.054,0.046 -0.27,-0.319 0.07,-0.075 0.199,0.038 0.075,-0.05 0.001,0.099 0.018,0.069 0.032,0.052 -0.029,0.081 z m 1.391,38.537 -0.122,-0.106 -0.023,-0.109 0.03,-0.14 -0.058,-0.204 0.177,0.176 0.031,0.229 -0.009,0.04 0.011,0.129 z m 17.489,-8.397 0.02,0.192 -0.051,0.476 -0.076,0.039 -0.007,0.171 -0.09,0.221 -0.106,0.705 -0.194,0.375 -0.083,0.483 -0.169,0.631 -0.284,0.568 -0.161,0.152 -0.122,0.067 -0.777,0.135 -0.329,-0.072 -0.406,0.018 -0.368,-0.025 -0.284,0.085 -0.205,0.151 -0.169,0.054 -0.397,0.043 -0.229,0.359 -0.587,0.218 -0.305,0.337 -0.458,0.338 -0.402,0.482 -0.163,0.128 -0.206,0.286 -0.38,0.115 -0.378,0.273 -0.214,0.2 L 8.738,36.48 8.452,36.609 8.274,36.733 7.981,36.86 7.633,37.083 7.144,37.17 6.712,37.201 5.988,37.068 5.412,37.039 5.189,36.949 4.897,36.984 4.607,37.052 4.46,37.177 4.181,37.289 3.958,37.183 3.507,37.208 2.886,37.443 2.737,37.571 2.455,37.679 2.266,37.794 1.737,37.937 1.466,37.954 1.367,37.887 1.33,37.728 0.836,37.699 0.591,37.561 0.467,37.582 0.322,37.477 l -0.324,-0.301 -0.059,0.098 0.061,0.1 0.143,0.181 0.02,0.069 -0.007,0.12 -0.134,0.04 -0.088,-10e-4 -0.144,-0.114 -0.132,-0.365 -0.102,-0.37 -0.334,-0.347 -0.181,-0.12 0.002,0.112 0.149,0.682 0.051,0.154 0.04,0.185 0.049,0.088 0.074,0.078 0.001,0.135 0.25,0.072 -0.017,0.173 -0.08,0.182 -0.153,-0.04 -0.106,-0.072 -0.151,-0.257 -0.069,0.095 -0.101,0.099 0.088,0.043 0.089,0.025 0.074,0.135 0.068,0.069 0.076,0.11 -0.016,0.191 -0.081,0.187 -0.108,0.172 -0.126,-0.083 -0.104,-0.012 0.104,0.117 -0.124,0.016 -0.069,0.095 -0.165,0.149 -0.192,0.135 -0.092,0.084 -0.191,-0.072 -0.101,-0.22 -0.079,-0.121 -0.085,-0.037 -0.043,0.269 -0.191,0.379 -0.177,0.046 -0.159,-0.031 -0.242,0.174 -0.349,0.114 -0.131,0.151 -0.173,-0.027 -0.134,0.033 -0.008,0.123 -0.184,-0.014 -0.182,0.016 -0.171,0.06 -0.182,0.047 -0.049,0.097 -0.227,0.143 -0.074,0.102 h -0.149 l -0.092,0.066 -0.144,-0.013 -0.185,0.009 -0.133,0.117 -0.123,0.062 -0.234,0.034 -0.074,-0.038 -0.038,-0.059 0.049,-0.074 0.026,-0.079 -0.094,0.032 -0.157,0.14 -0.169,-0.087 -0.065,-0.011 -0.08,0.026 -0.076,0.06 -0.061,0.024 -0.137,-0.054 -0.14,-0.137 -0.13,0.116 -0.065,-0.015 -0.083,-0.043 -0.025,-0.103 -0.132,-0.059 -0.117,-0.121 -0.092,-0.117 0.02,-0.142 -0.259,-0.19 0.074,-0.15 -0.124,-0.17 0.017,-0.125 0.03,-0.075 0.184,-0.084 -0.174,-0.068 -0.031,-0.168 -0.12,0.083 -0.127,0.141 -0.199,0.002 -0.508,-0.613 -0.295,-0.088 -0.101,-0.068 -0.355,-0.768 -0.091,-0.287 -0.119,-0.166 -0.095,-0.062 -0.109,-0.046 0.067,0.132 0.083,0.114 0.084,0.43 0.084,0.16 0.112,0.394 0.153,0.43 -0.491,-0.243 -0.242,-0.106 -0.331,0.1 -0.174,0.07 -0.212,-0.046 -0.101,-0.07 -0.158,-0.047 -0.258,-0.166 -0.33,0.296 -0.096,0.06 -0.092,0.099 0.026,0.12 -0.006,0.091 -0.194,0.276 -0.058,0.204 -0.013,0.117 -0.034,0.152 -0.095,0.111 -0.038,0.088 0.144,0.138 -0.007,0.07 -0.095,0.111 -0.176,-0.087 -0.066,-0.082 -0.313,-0.188 -0.172,-0.156 -0.422,-0.234 -0.208,-0.072 -0.544,-0.345 -0.45,-0.096 -0.205,0.144 -0.639,0.015 0.2,0.067 0.585,0.272 0.377,-0.065 0.072,0.055 0.084,0.086 0.023,0.25 0.185,0.113 0.178,0.178 -0.002,0.293 0.034,0.167 0.267,0.382 0.106,0.071 0.166,0.21 0.189,0.383 0.03,0.168 0.327,0.097 0.244,0.29 0.102,0.055 0.17,0.02 0.11,0.09 0.313,0.355 0.215,0.389 0.216,0.204 0.088,0.152 0.403,0.322 0.043,0.066 0.198,0.125 0.07,0.074 -0.013,0.19 0.045,0.271 -0.137,0.43 -0.176,0.128 -0.24,0.099 -0.211,0.021 -0.279,0.057 -0.136,0.175 -0.075,0.128 -0.059,0.19 -0.091,0.048 -0.1,0.005 0.068,0.082 -0.004,0.055 -0.105,0.299 -0.095,0.181 -0.049,0.171 -0.019,0.142 -0.301,0.764 -0.106,0.366 -0.043,0.701 -0.259,0.757 -0.194,0.236 -0.242,0.16 -0.155,-0.005 -0.019,-0.139 -0.171,-0.31 -0.056,-0.038 -0.151,-0.085 -0.069,-0.112 -0.04,-0.109 -0.094,-0.074 -0.089,-0.092 -0.028,-0.076 -0.084,-0.059 -0.016,-0.099 -0.211,-0.349 -0.084,-0.158 -0.12,-0.167 -0.075,-0.062 -0.103,-0.099 -0.052,-0.115 v -0.119 l -0.071,-0.142 -0.04,-0.123 -0.068,-0.072 -0.179,-0.388 -0.008,-0.134 -0.042,-0.079 -0.127,-0.185 -0.086,-0.111 -0.149,-0.084 -0.157,-0.091 -0.06,-0.099 -0.111,-0.05 -0.081,-0.003 -0.131,0.036 -0.176,0.017 -0.09,-0.012 -0.041,0.05 -0.06,0.112 -0.088,0.081 -0.057,-0.028 -0.119,-0.081 -0.14,-0.047 -0.099,0.016 -0.216,0.056 -0.092,0.027 -0.028,0.048 -0.032,0.035 -0.048,-0.015 -0.063,-0.06 -0.085,-0.062 -0.126,-0.082 -0.26,-0.147 -0.072,-0.053 -0.068,0.029 -0.109,0.029 -0.117,0.002 -0.253,0.095 -0.149,0.068 -0.063,0.086 -0.075,0.037 -0.044,0.023 -0.082,0.002 -0.065,0.057 -0.009,0.069 -0.036,0.078 -0.08,0.024 -0.153,-0.027 -0.044,0.019 -0.091,0.084 -0.076,0.092 -0.019,0.088 -0.048,-0.008 -0.117,-0.08 -0.079,-0.017 -0.063,0.021 -0.07,-0.006 -0.178,-0.085 -0.104,-0.02 -0.075,-0.087 -0.494,-0.039 -0.129,-0.022 -0.295,0.149 -0.076,0.049 -0.039,0.007 -0.033,-0.009 -0.032,-0.032 -0.048,-0.188 -0.045,-0.052 -0.077,-0.041 -0.075,-0.075 -0.015,-0.072 0.115,-0.041 0.097,-0.141 0.105,-0.112 0.084,-0.101 -0.011,-0.112 -0.015,-0.16 -0.06,-0.055 -0.103,-0.027 -0.374,0.078 -0.287,0.069 -0.121,0.015 -0.053,0.018 -0.077,-0.027 -0.069,-0.036 -0.096,0.028 -0.132,-0.015 -0.139,-0.04 -0.126,-0.019 -0.24,0.063 -0.073,0.009 -0.05,0.027 -0.1,0.124 -0.047,0.015 -0.128,-0.059 -0.155,-0.04 -0.076,0.008 -0.089,-0.042 -0.083,-0.055 -0.158,-0.243 -0.082,-0.086 -0.088,-0.039 -0.175,10e-4 -0.188,-0.008 -0.141,-0.059 -0.131,-0.03 -0.066,-0.004 -0.022,-0.133 -0.031,-0.062 -0.041,-0.035 -0.102,-0.011 -0.092,0.005 -0.056,0.056 -0.103,0.027 -0.092,0.02 -0.059,0.032 -0.048,-0.009 -0.04,-0.055 -0.032,-0.047 -0.028,-0.087 -0.139,-0.028 -0.06,-0.05 0.035,-0.163 -0.016,-0.063 -0.029,-0.05 -0.169,-0.01 -0.143,0.004 -0.083,-0.06 -0.102,-0.07 -0.063,-0.013 -0.074,0.004 -0.097,0.081 -0.094,0.1 -0.238,0.07 -0.236,0.058 -0.155,0.159 -0.037,0.078 -0.073,0.035 -0.183,0.188 -0.103,0.122 -0.109,0.032 -0.127,0.051 0.006,0.088 -0.009,0.084 -0.054,0.034 -0.077,0.023 -0.027,0.047 0.007,0.111 0.015,0.286 -0.021,0.274 -0.169,0.095 -0.074,0.064 -0.128,0.405 -0.061,0.182 -0.002,0.136 0.042,0.404 0.048,0.174 0.132,0.351 0.075,0.119 0.005,0.088 -0.008,0.114 -0.039,0.225 0.222,0.142 0.095,0.06 0.016,0.095 0.118,0.12 0.053,0.115 0.044,0.09 -0.012,0.048 -0.052,0.027 -0.061,0.086 -0.128,0.247 -0.047,0.049 -0.039,0.07 0.02,0.109 0.051,0.119 -0.007,0.049 -0.077,0.064 -0.158,0.106 -0.131,0.008 -0.102,0.039 -0.149,0.005 -0.119,0.012 -0.068,0.04 0.014,0.065 0.029,0.05 0.101,0.124 0.067,0.133 0.009,0.13 0.02,0.17 0.03,0.148 0.015,0.168 -0.158,0.11 -0.05,0.09 -0.065,0.08 h -0.072 l -0.108,0.035 -0.169,-0.106 -0.133,0.02 -0.091,-0.04 -0.211,0.008 -0.136,0.051 -0.164,-0.034 0.055,-0.019 0.072,-0.049 0.067,-0.148 0.055,-0.157 0.001,-0.081 -0.043,-0.102 -0.093,-0.118 -0.113,-0.095 -0.166,-0.081 -0.131,-0.076 -0.109,-0.202 -0.065,-0.071 -0.061,-0.028 -0.12,-0.027 -0.192,0.006 -0.128,0.016 -0.158,-0.151 -0.202,-0.055 -0.135,-0.205 -0.481,-0.163 -0.472,-0.127 -0.129,-0.051 -0.465,0.105 -0.112,-0.032 -0.129,-0.098 -0.118,-0.076 -0.1,-0.004 -0.085,-0.039 -0.05,-0.14 -0.045,-0.48 -0.167,-0.143 -0.201,10e-4 -0.139,0.166 -0.164,0.126 -0.286,0.298 -0.08,0.038 -0.074,-10e-4 -0.265,-0.088 -0.127,0.038 -0.101,0.046 -0.17,-0.015 -0.303,-0.003 -0.193,-0.003 -0.093,0.082 -0.087,0.166 -0.059,0.059 -0.069,0.049 -0.114,0.023 h -0.488 -0.092 l -0.067,0.032 -0.093,0.142 -0.103,0.068 -0.12,0.002 -0.053,-0.078 0.209,-0.257 0.06,-0.139 0.183,-0.202 0.528,-0.425 0.098,-0.136 -0.011,-0.173 -0.003,-0.264 0.018,-0.25 0.136,-0.359 0.191,-0.365 0.052,-0.233 -0.035,-0.172 -0.037,-0.091 0.004,-0.04 0.04,-0.038 0.181,-0.052 0.382,-0.034 h 0.231 l 0.353,-0.039 0.026,-0.128 -0.034,-0.212 -0.07,-0.12 -0.057,-0.035 -0.192,-0.028 -0.202,-0.13 -0.293,-0.128 -0.167,-0.017 -0.07,-0.026 -0.059,-0.038 -0.049,-0.049 -0.057,-0.24 -0.086,-0.271 -0.163,-0.162 -0.179,-0.132 -0.182,-0.015 -0.146,0.01 -0.073,-0.039 -0.105,-0.11 -0.15,-0.136 -0.116,-0.073 -0.156,0.007 -0.166,-0.067 -0.211,-0.11 -0.139,-0.09 -0.119,-0.154 -0.17,-0.162 -0.175,-0.114 -0.084,-0.14 -0.119,-0.178 -0.15,-0.006 -0.011,0.107 0.071,0.172 -0.078,0.148 -0.141,0.08 -0.067,0.023 -0.066,-0.01 -0.169,-0.073 -0.206,-0.133 -0.128,-0.096 -0.115,-0.044 -0.237,-0.039 -0.199,-0.02 -0.082,0.027 -0.148,0.098 -0.343,0.306 -0.464,0.414 -0.342,-0.08 -0.03,0.012 -0.021,0.044 0.01,0.342 -0.004,0.386 -0.052,0.158 -0.157,0.253 -0.207,0.336 -0.056,0.097 -0.088,0.055 -0.104,0.008 -0.075,-0.023 -0.102,-0.063 -0.096,-0.068 -0.185,-0.203 -0.187,-0.237 -0.109,-0.053 -0.109,-0.021 -0.097,0.007 -0.078,0.063 -0.08,0.13 -0.096,0.172 -0.115,0.055 -0.044,-0.052 -0.038,-0.101 -0.03,-0.101 0.077,-0.127 0.066,-0.098 -0.113,0.003 h -0.368 -0.425 -0.424 -0.381 -0.353 l -0.134,0.008 -0.137,0.057 -0.132,0.028 -0.069,-0.004 -0.124,-0.057 -0.162,-0.008 -0.109,-0.053 -0.088,0.006 -0.002,-0.296 -10e-4,-0.422 -0.003,-0.446 0.097,0.033 0.085,-0.003 0.062,-0.031 0.174,0.025 0.096,-0.013 0.091,-0.012 0.085,-10e-4 0.051,-0.036 0.07,0.007 0.075,0.038 0.09,-0.024 0.095,-0.063 0.062,-0.094 0.056,-0.116 0.055,-0.061 -0.003,-0.112 -0.002,-0.087 -0.02,-0.072 0.025,-0.047 0.018,-0.051 -0.005,-0.028 -0.033,-0.014 -0.07,-0.009 -0.074,-0.008 -0.053,0.003 -0.04,0.045 -0.039,0.005 -0.057,-0.006 -0.06,0.027 -0.052,0.057 -0.093,0.056 -0.099,-0.024 -0.068,-0.029 -0.07,-0.035 -0.064,-0.038 -0.063,0.01 -0.082,-0.028 -0.068,-0.042 -0.091,-0.033 -0.099,-0.016 -0.114,-0.017 -0.109,-0.006 -0.123,-0.013 -0.008,-0.235 -0.014,-0.463 -0.009,-0.307 0.001,-0.282 0.047,-0.103 0.219,-0.218 0.172,-0.114 0.145,-0.128 0.144,-0.053 0.061,-0.048 0.04,-0.079 0.02,-0.083 0.015,-0.072 -0.015,-0.075 -0.036,-0.071 0.016,-0.075 0.051,-0.059 0.017,-0.076 0.035,-0.071 0.02,-0.071 0.044,-0.051 0.056,-0.036 0.071,-0.06 0.008,-0.055 -0.008,-0.063 v -0.048 l 0.067,-0.109 0.021,-0.076 -0.032,-0.092 -0.031,-0.315 -0.079,-0.359 -0.05,-0.275 -0.082,-0.447 -0.095,-0.521 -0.116,-0.634 -0.115,-0.627 -0.111,-0.606 -0.101,-0.549 -0.11,-0.605 -0.068,-0.366 -0.032,-0.063 -0.011,-0.117 -0.057,-0.047 -0.089,-0.011 -0.137,0.083 -0.1,-0.02 -0.099,-0.005 -0.14,0.097 -0.049,0.095 -0.11,0.079 -0.228,-0.032 -0.187,-0.002 -0.157,0.018 -0.141,-0.026 -0.12,-0.101 -0.089,-0.118 -0.105,-0.099 -0.308,-0.066 -0.164,-0.002 -0.148,-0.065 -0.219,-0.024 -0.15,-0.058 -0.266,-0.031 -0.318,-0.031 -0.178,-0.088 -0.071,-0.038 -0.181,-0.122 -0.314,-0.192 -0.174,-0.066 -0.21,-0.207 -0.251,-0.195 -0.164,-0.104 -0.24,-0.048 -0.099,-0.051 -0.037,-0.063 0.021,-0.073 -0.041,-0.188 -0.073,-0.346 -0.021,-0.17 -0.017,-0.081 -0.159,-0.279 -0.171,-0.259 -0.084,-0.171 -0.048,-0.126 0.053,-0.105 0.07,-0.187 0.058,-0.151 0.016,-0.101 -0.02,-0.117 -0.072,-0.108 -0.114,-0.069 -0.153,-0.02 -0.315,-0.188 -0.351,-0.279 -0.115,-0.129 -0.033,-0.123 -0.051,-0.191 0.021,-0.1 0.062,-0.068 0.063,-0.162 0.006,-0.084 -0.053,-0.047 -0.099,-0.011 -0.09,-0.015 -0.067,-0.042 -0.069,0.011 -0.063,-0.021 V 28.89 l 0.021,-0.079 -0.01,-0.083 -0.042,-0.053 -0.037,-0.037 0.037,-0.052 0.063,-0.048 0.094,-0.078 0.131,-0.152 0.1,-0.026 0.084,-0.053 0.01,-0.083 -0.031,-0.084 -0.074,-0.037 -0.005,-0.073 0.1,-0.09 0.068,-0.062 0.068,-0.095 0.063,-0.131 V 27.49 l 0.068,-0.104 0.042,-0.089 v -0.084 l 0.11,-0.084 0.094,-0.064 0.069,-0.057 0.068,-0.036 0.016,-0.064 -0.01,-0.096 0.099,-0.157 0.179,-0.117 0.145,-0.172 0.095,-0.124 0.173,-0.199 0.007,-0.231 -0.216,-0.262 -0.215,-0.264 0.353,0.007 0.36,-0.005 0.377,-0.075 0.254,-0.073 0.155,-0.033 0.11,-0.084 0.053,-0.131 0.041,-0.108 0.011,-0.155 0.157,-0.126 -0.011,-0.12 -0.004,-0.169 0.069,-0.003 0.462,-10e-4 0.504,-0.001 0.485,0.032 0.184,0.041 0.221,0.205 0.133,0.062 0.128,0.096 0.156,0.174 0.123,0.079 0.104,0.098 0.156,0.097 0.064,0.072 0.052,0.026 0.121,0.047 -0.053,-0.094 -0.039,-0.097 -0.013,-0.14 0.058,-0.152 -0.048,-0.113 -0.078,-0.103 -10e-4,-0.268 -0.002,-0.379 -0.002,-0.327 -10e-4,-0.407 -0.003,-0.463 -10e-4,-0.307 0.083,0.06 0.114,0.055 0.149,-0.142 0.105,-0.061 0.091,-0.015 0.094,0.005 0.127,0.03 0.277,0.118 0.191,0.096 0.218,-0.007 0.299,-0.037 0.173,0.004 0.209,0.007 0.423,-0.014 0.41,-0.07 0.277,-0.03 0.115,-0.062 0.026,-0.096 0.077,-0.044 0.088,0.017 0.101,0.006 0.224,0.099 0.182,0.065 0.157,0.079 0.08,0.077 0.195,0.269 0.157,0.148 0.144,0.052 0.283,0.022 0.09,-0.042 0.115,0.004 0.099,0.154 0.152,0.168 0.299,0.211 0.152,0.057 0.095,0.075 0.162,0.01 0.143,0.076 0.689,0.533 0.279,0.136 0.174,0.026 0.144,0.032 0.245,0.076 0.612,0.073 0.393,0.032 0.126,-0.074 0.142,0.021 0.12,0.119 0.1,0.039 0.073,-0.004 0.105,-0.14 0.052,-0.15 -0.034,-0.114 0.006,-0.166 0.047,-0.217 -0.026,-0.192 -0.149,-0.253 -0.074,-0.103 -0.019,-0.105 0.013,-0.144 0.068,-0.233 0.123,-0.322 0.019,-0.241 -0.087,-0.155 -0.039,-0.134 0.007,-0.113 0.03,-0.079 0.055,-0.046 0.031,-0.09 0.006,-0.136 0.072,-0.129 0.137,-0.127 0.056,-0.121 -0.026,-0.115 0.007,-0.071 0.04,-0.029 0.038,0.023 0.05,0.032 0.045,-0.011 0.095,-0.161 0.013,-0.033 0.052,-0.132 0.016,-0.1 0.141,-0.056 0.153,-0.044 0.083,-0.054 0.169,-0.158 0.142,-0.104 0.177,-0.086 0.059,-0.137 0.109,-0.207 0.299,-0.079 0.349,-0.04 0.222,-0.045 0.272,0.11 0.18,-0.015 0.185,-0.075 0.08,-0.05 0.138,-0.108 0.214,-0.135 0.175,-0.051 0.125,0.075 0.115,0.027 0.089,-0.032 0.047,-0.148 0.048,-0.101 0.103,-0.075 0.221,-0.194 0.126,-0.081 0.142,0.006 0.292,-0.128 0.312,-0.124 0.16,-0.02 0.159,0.017 0.105,-0.046 0.042,-0.151 0.27,-0.3 0.128,-0.117 0.152,-0.1 0.387,0.001 0.116,-0.031 0.172,0.028 0.519,0.05 0.094,0.017 0.293,-0.132 0.347,-0.187 0.229,-0.149 0.161,-0.081 0.084,-0.133 0.067,-0.138 0.032,-0.149 -0.042,-0.147 -0.063,-0.06 -0.021,-0.095 0.027,-0.144 0.115,-0.127 0.042,-0.158 0.063,-0.277 0.071,-0.088 0.046,-0.864 -0.232,-0.006 -0.328,-0.011 0.096,-0.082 0.27,-0.322 0.25,-0.296 0.039,-0.476 0.025,-0.301 0.035,-0.424 0.021,-0.252 0.622,-0.023 0.717,-0.026 0.861,-0.032 0.757,-0.028 0.075,0.003 0.132,0.035 0.087,0.045 0.054,-0.002 0.009,-0.102 -0.018,-0.129 v -0.149 l -0.217,-0.294 -0.013,-0.093 0.032,-0.388 0.077,-0.314 0.039,-0.284 0.087,-0.088 0.257,-0.15 0.387,-0.276 0.155,-0.037 0.131,0.037 0.079,-0.112 0.016,-0.182 0.214,-0.511 0.136,-0.324 0.062,-0.114 0.102,-0.058 -0.019,-0.042 -0.085,-0.017 -0.038,-0.06 -0.118,-0.364 -0.154,-0.48 -0.105,-0.336 0.094,-0.006 0.004,-0.093 0.021,-0.142 -0.117,-0.019 -0.034,-0.051 -0.134,-0.276 -0.175,-0.362 -0.181,-0.375 -0.108,-0.223 0.184,-0.165 0.305,-0.273 -0.048,-0.077 -0.131,-0.038 -0.11,-0.027 -0.084,-0.104 -0.048,-0.075 -0.119,-0.025 0.04,-0.137 0.024,-0.104 0.059,-0.075 0.06,-0.099 0.06,-0.055 0.042,-0.094 -0.012,-0.104 0.024,-0.137 0.03,-0.117 0.029,-0.031 0.086,-0.032 0.043,-0.106 -0.031,-0.055 0.012,-0.061 0.031,-0.061 -0.028,-0.058 0.014,-0.046 0.058,-0.04 0.055,-0.149 0.005,-0.255 -0.06,-0.136 -0.047,-0.112 -0.012,-0.068 0.036,-0.1 -0.06,-0.118 -0.072,-0.142 0.018,-0.1 0.012,-0.094 0.006,-0.099 0.018,-0.093 -0.024,-0.1 -0.024,-0.087 -0.012,-0.099 0.03,-0.113 -0.054,-0.106 -0.029,-0.074 -0.012,-0.075 0.054,-0.119 0.137,-0.049 0.107,-0.013 0.102,0.062 0.077,0.019 0.144,-0.056 0.131,-0.099 0.167,-0.013 0.15,-0.019 0.113,-0.031 0.167,0.037 0.173,-0.037 0.203,-0.056 0.168,-0.05 0.167,0.012 0.125,0.006 0.132,0.057 0.125,-0.007 0.096,0.101 0.054,0.087 0.047,0.062 0.138,0.05 0.095,-0.031 0.078,-0.162 0.137,-0.094 0.054,-0.069 0.101,-0.031 0.222,-0.006 0.137,0.006 0.155,-0.05 h 0.102 l 0.089,-0.087 0.084,-0.106 0.012,-0.194 0.077,-0.15 0.102,-0.056 0.054,-0.094 -0.018,-0.131 -0.048,-0.132 0.006,-0.143 0.054,-0.132 V 0.167 l 0.035,-0.132 0.072,-0.112 0.024,-0.182 -0.012,-0.132 0.048,-0.075 0.018,-0.107 -0.03,-0.087 -0.012,-0.119 0.006,-0.108 0.036,-0.088 0.107,-0.112 0.03,-0.201 v -0.139 l 0.048,-0.163 0.09,-0.076 0.143,-0.025 0.167,-0.025 0.203,0.037 0.179,0.044 0.102,0.045 0.197,0.119 0.173,0.07 0.09,0.044 0.083,0.031 0.174,-0.075 0.161,-0.095 0.125,-0.132 0.233,-0.144 -0.045,-0.036 -0.093,-0.119 0.002,-0.138 0.065,-0.201 -0.057,-0.422 -0.181,-0.649 -0.074,-0.378 0.032,-0.106 -0.066,-0.19 -0.248,-0.407 -0.01,-0.274 0.14,-10e-4 0.066,-0.062 0.104,-0.032 0.11,0.07 0.092,0.032 0.148,0.003 0.08,0.078 0.093,0.013 0.063,-0.043 0.062,-0.051 0.132,-0.011 0.104,-0.134 0.114,-0.041 0.049,-0.153 0.074,-0.405 0.138,-0.239 0.136,-0.271 0.005,-0.123 -0.076,-0.122 -0.013,-0.175 -0.048,-0.431 -0.016,-0.158 0.047,-0.109 0.018,-0.151 -0.074,-0.185 -0.144,-0.275 -0.14,-0.075 -0.035,-0.003 -0.19,-0.159 -0.133,-0.061 -0.077,0.041 -0.088,-0.069 -0.099,-0.18 -0.121,-0.08 -0.219,-0.044 -0.065,-0.021 -0.127,0.006 -0.11,-0.044 -0.091,-0.096 -0.097,-0.036 -0.103,0.024 -0.094,-0.035 -0.084,-0.095 -0.049,-0.101 -0.014,-0.111 -0.082,-0.074 -0.152,-0.04 -0.053,-0.056 0.01,-0.077 -0.068,-0.059 -0.257,-0.063 -0.186,-0.111 -0.114,-0.159 -0.121,-0.1 -0.19,-0.061 -0.259,-0.163 -0.037,-0.099 0.098,-0.093 0.036,-0.082 -0.028,-0.071 -0.081,-0.01 -0.134,0.053 -0.095,0.01 -0.057,-0.031 -0.027,-0.057 0.003,-0.085 -0.048,-0.058 -0.098,-0.03 -0.063,-0.071 -0.026,-0.11 -0.124,-0.138 -0.222,-0.167 -0.175,-0.225 -0.128,-0.283 -0.149,-0.186 -0.171,-0.09 -0.118,-0.127 -0.064,-0.165 -0.183,-0.256 -0.3,-0.346 -0.272,-0.24 -0.244,-0.128 -0.137,-0.147 -0.031,-0.163 -0.158,-0.186 -0.286,-0.209 -0.082,-0.094 0.102,-0.145 0.304,-0.038 0.306,-0.005 0.05,0.036 0.12,0.238 0.159,0.067 0.172,0.018 0.188,-0.012 0.201,-0.157 0.568,-0.514 0.417,-0.357 0.127,-0.169 0.11,-0.126 0.083,-0.119 -0.035,-0.305 0.005,-0.135 0.02,-0.038 0.095,-0.004 0.141,0.023 0.119,0.065 0.093,0.099 0.091,0.08 0.074,0.043 0.027,0.064 0.042,0.067 0.043,0.015 0.083,-0.05 0.194,-0.175 0.151,-0.162 0.037,-0.092 0.058,-0.097 0.062,-0.084 0.044,-0.082 0.147,-0.108 0.148,-0.068 0.1,0.069 0.253,-0.222 0.557,-0.187 0.102,-0.113 0.096,-0.16 0.195,-0.243 0.27,-0.22 0.216,-0.093 0.208,-0.053 0.117,-0.047 0.08,-0.084 0.127,-0.091 0.08,-0.034 0.028,-0.081 0.082,-0.177 0.085,-0.225 0.094,-0.209 0.203,-0.2 0.228,-0.156 0.238,-0.088 0.113,-0.094 0.054,0.046 0.085,0.059 0.112,0.044 0.069,0.128 0.059,0.13 0.147,0.074 0.121,0.083 0.012,0.086 0.021,0.073 0.022,0.095 0.064,0.091 0.044,0.038 0.034,-0.011 0.02,-0.067 v -0.22 l 0.067,-0.092 0.05,-0.119 0.058,-0.092 0.004,-0.081 -0.013,-0.091 -0.034,-0.106 -0.077,-0.12 -0.061,-0.118 -0.068,-0.11 -0.075,-0.128 -0.064,-0.063 -0.07,-0.02 -0.087,0.015 -0.078,0.097 -0.068,0.078 -0.071,0.047 -0.094,-0.019 -0.115,-0.075 -0.076,-0.222 -0.098,-0.199 -0.116,-0.052 -0.061,-0.008 -0.048,-0.019 -0.045,-0.05 -0.058,-0.078 -0.05,-0.155 -0.029,-0.231 0.028,-0.246 -0.03,-0.119 -0.067,-0.031 -0.032,-0.021 -0.033,0.01 -0.011,0.009 -0.008,-0.151 0.011,-0.066 0.023,-0.044 0.099,-0.066 0.119,-0.055 0.049,-0.01 0.812,0.686 0.285,0.273 0.201,0.259 0.259,0.527 0.301,0.872 0.121,0.232 0.153,0.205 0.113,0.107 -0.071,0.158 -0.045,0.241 -0.003,0.163 0.133,0.38 0.168,0.191 0.058,0.217 0.04,0.21 0.082,0.089 0.38,0.19 0.38,0.275 0.077,0.104 -0.039,0.148 0.047,0.128 0.149,0.131 0.032,0.341 0.077,-0.056 0.06,-0.097 -0.008,0.317 0.074,0.244 0.106,0.11 0.055,0.094 -0.225,0.237 -0.024,0.203 -0.005,0.209 0.087,-0.049 0.029,-0.121 0.098,-0.176 0.251,-0.099 0.028,-0.213 0.168,-0.01 0.516,0.271 0.149,-0.033 0.031,-0.125 -0.064,-0.241 -0.06,-0.036 -0.126,0.086 -0.057,-0.024 0.049,-0.55 -0.146,-0.216 -0.308,-0.178 -0.044,-0.203 0.019,-0.091 -0.046,-0.084 -0.227,0.025 -0.1,-0.074 0.006,-0.293 -0.03,-0.145 -0.177,-0.272 -0.314,-0.16 -0.423,-0.433 -0.222,-0.044 -0.068,-0.07 -0.094,-0.071 -0.184,0.105 -0.123,-0.03 0.006,-0.166 0.03,-0.128 -0.046,-0.17 0.054,-0.104 0.214,0.25 0.221,0.178 0.61,0.394 0.557,0.442 0.416,0.44 0.313,0.377 0.231,0.338 0.579,0.933 0.481,1.23 0.518,0.86 0.445,0.563 0.413,0.4 0.447,0.337 0.404,0.24 0.005,0.259 0.188,0.258 0.08,0.201 0.05,0.255 0.028,0.487 -0.067,0.518 0.127,0.36 -0.042,0.211 0.075,0.131 -0.026,0.14 -0.045,0.127 -0.04,0.348 -0.113,0.338 0.003,0.174 0.033,0.18 0.012,0.217 -0.089,0.112 -0.086,0.154 0.062,0.08 0.063,0.002 0.108,0.089 0.078,0.469 -0.066,0.116 h -0.12 l 0.024,0.059 0.218,0.055 0.26,0.42 -0.052,0.089 -0.139,0.056 -0.334,0.058 -0.072,0.234 0.158,-0.13 0.144,-0.02 0.16,0.009 0.087,0.076 -0.056,0.176 0.101,0.075 0.233,-0.066 0.159,-0.007 -0.102,-0.178 0.071,-0.026 0.322,0.344 0.171,0.131 0.039,0.192 -0.092,0.005 -0.054,0.057 0.135,0.068 0.068,0.005 0.082,0.085 0.432,0.328 0.821,0.55 0.487,0.489 0.428,0.24 1.189,0.599 0.233,0.061 0.322,-0.002 0.248,-0.077 0.114,0.004 0.056,0.084 0.018,0.139 0.177,0.163 0.198,0.046 0.477,0.368 0.514,0.088 0.087,0.035 0.088,0.08 -0.092,0.087 -0.096,0.041 -0.013,0.19 0.079,0.096 0.487,0.096 L 0.079,0.194 0.26,0.319 0.588,0.384 0.883,0.278 0.931,0.197 0.723,0.128 0.529,0.148 0.394,0.106 0.529,0.022 0.822,0.089 1.19,0.127 1.485,0.219 1.747,0.231 1.802,0.331 1.775,0.445 1.725,0.539 1.715,0.603 1.738,0.692 1.874,0.734 1.996,0.738 2.034,0.648 1.97,0.498 2.005,0.399 2.123,0.323 2.227,0.277 2.46,0.266 2.908,0.326 3.736,0.327 3.881,0.314 3.98,0.508 4.064,0.615 3.983,0.715 3.962,0.887 3.993,1.008 4.489,1.52 4.711,1.644 5.542,1.944 5.763,2.105 5.785,2.253 5.725,2.836 5.722,2.862 5.678,3.033 5.846,3.537 6.073,3.925 6.144,4.159 6.256,4.271 6.492,4.389 6.854,4.79 6.994,5.059 7.029,5.308 7.203,5.47 7.313,5.914 7.567,6.337 7.85,6.51 7.96,6.654 8.054,6.874 8.111,7.202 8.035,8.006 8.039,8.389 8.2,9.108 l 0.296,0.487 0.134,0.13 0.242,0.13 0.225,0.27 -0.03,0.114 -0.081,0.604 0.023,0.255 0.07,0.248 0.07,0.516 0.112,0.479 0.185,0.586 0.144,0.593 -0.008,0.041 -0.104,0.51 -0.096,0.571 -0.031,0.584 -0.084,0.515 0.212,1.143 -0.043,0.05 -0.077,-0.179 -0.071,0.104 0.024,0.097 -0.011,0.426 0.072,0.171 0.023,0.091 -0.038,0.061 -0.046,0.041 -0.099,-0.054 0.04,0.198 0.066,0.211 0.13,0.168 0.223,0.229 0.004,0.209 0.126,0.229 -0.036,0.115 -0.123,0.098 0.115,0.014 0.079,0.063 0.096,0.226 0.067,-0.037 0.233,-0.215 0.047,-0.354 0.093,-0.019 0.082,10e-4 0.293,0.223 0.398,0.461 0.112,0.211 0.485,0.684 0.396,0.812 0.104,0.284 -0.048,0.188 0.143,0.257 0.067,0.068 0.002,-0.094 -0.019,-0.078 -0.042,-0.074 -0.002,-0.097 0.073,0.051 0.242,0.342 -0.003,0.216 0.104,-0.03 0.058,0.055 0.281,0.425 0.306,0.27 0.239,0.148 0.405,0.182 0.024,0.011 0.316,0.469 0.304,0.271 0.306,0.413 0.068,0.137 -0.078,0.154 0.11,-0.058 0.119,0.03 0.302,0.293 0.462,0.561 0.331,0.542 0.345,0.946 0.137,0.57 0.101,0.218 -0.003,0.179 -0.076,0.225 0.01,0.1 0.033,0.104 -0.011,0.07 0.005,0.112 z M 9.363,18.008 9.335,17.953 l 0.052,-0.07 0.029,-0.072 0.071,-0.016 0.062,0.107 -0.007,0.132 -0.131,0.005 z m -22.643,23.044 -0.239,-0.369 -0.003,-0.414 -0.22,-0.209 -0.246,-0.449 0.191,0.034 0.352,0.165 0.311,0.234 0.28,0.336 0.061,0.004 0.209,0.637 -0.168,0.225 -0.309,-0.044 z m 3.148,1.072 -0.05,-0.076 0.22,-0.089 0.478,0.056 0.114,0.103 0.015,0.101 -0.051,0.1 -0.186,0.048 -0.178,-0.037 -0.199,-0.086 z m -2.196,-0.379 0.167,-0.115 0.494,0.351 0.004,0.046 -0.03,0.086 -0.177,0.031 -0.139,-0.017 -0.276,-0.099 -0.055,-0.12 0.006,-0.029 -0.029,-0.067 z m 10.964,-1.978 0.115,0.086 -0.009,0.074 -0.163,0.017 -0.031,-0.144 -0.028,0.005 -0.017,-0.05 0.096,-0.033 z m -8.285,2.031 -0.169,0.008 -1.119,0.202 -0.385,-0.073 -0.332,-0.207 -0.087,-0.165 -0.04,-0.189 0.023,-0.105 -0.03,-0.099 -0.093,-0.111 -0.017,-0.08 -0.028,-0.388 0.023,-0.186 0.133,-0.121 0.211,0.008 0.029,-0.054 -0.007,-0.065 -0.027,-0.014 -0.131,0.03 -0.111,0.007 -0.054,-0.204 0.065,-0.235 0.091,-0.259 0.101,-0.219 0.028,-0.108 0.17,-0.161 0.116,-0.023 0.19,0.08 0.413,0.015 0.079,0.079 0.101,-0.009 0.178,-0.098 0.192,-0.049 0.101,0.063 0.178,0.031 0.113,0.046 0.112,0.147 0.035,0.213 0.18,-0.078 0.112,-0.072 0.2,-0.007 0.053,0.072 0.041,0.133 0.016,0.13 0.156,-0.166 0.087,-0.016 0.095,0.017 0.103,0.04 0.172,0.166 0.053,0.113 -0.045,0.09 -0.019,0.09 0.09,0.095 0.111,0.075 0.043,0.045 0.145,0.215 0.096,0.168 0.039,0.082 0.018,0.083 -0.049,0.209 0.078,-0.012 0.047,0.047 0.061,0.234 0.064,0.167 0.088,0.159 -0.024,0.1 -0.093,0.045 -0.129,0.042 -0.13,0.03 -0.359,0.03 -0.597,0.092 -0.177,0.009 -0.179,-0.016 -0.16,-0.084 z m 1.933,-50.076 -0.073,-0.116 -0.067,-0.153 -0.022,-0.461 0.124,0.088 -0.02,0.116 0.158,0.274 0.057,0.222 -0.067,0.101 z m -3.542,50.745 0.17,0.215 -0.019,0.219 -0.015,0.359 -0.039,0.017 -0.044,-0.017 -0.05,-0.042 -0.003,-0.239 -0.046,-0.176 -0.134,-0.143 -0.152,-0.076 -0.025,-0.27 0.325,-0.111 z m 0.05,3.145 0.18,0.082 0.012,0.074 -0.09,0.291 -0.037,0.023 -0.101,0.012 -0.131,-0.058 -0.032,-0.178 0.095,-0.214 z m 0.443,-2.69 0.204,0.233 0.006,0.129 -0.04,0.077 -0.072,-0.023 -0.025,-0.036 -0.25,-0.035 -0.055,-0.123 v -0.226 l 0.037,-0.057 z m -0.215,-0.289 -0.131,-0.175 0.01,-0.163 0.097,-0.027 0.312,0.008 0.199,-0.111 0.155,0.01 0.141,0.054 0.256,0.375 -0.075,0.094 -0.254,0.065 -0.449,-0.14 z"
         style="fill:#aa0000;stroke:#555151;stroke-width:0.717312;stroke-linecap:round;stroke-linejoin:round;stroke-miterlimit:4;stroke-dasharray:none;stroke-opacity:1"
         id="path13785" />
    </g>
  </g>
</svg>
