<?xml version="1.0" encoding="UTF-8" standalone="no"?>
<!-- Created with Inkscape (http://www.inkscape.org/) -->

<svg
   width="36.891155mm"
   height="40.17939mm"
   viewBox="0 0 36.891155 40.17939"
   version="1.1"
   id="svg2380"
   inkscape:version="1.1 (c4e8f9e, 2021-05-24)"
   sodipodi:docname="Japan.svg"
   xmlns:inkscape="http://www.inkscape.org/namespaces/inkscape"
   xmlns:sodipodi="http://sodipodi.sourceforge.net/DTD/sodipodi-0.dtd"
   xmlns="http://www.w3.org/2000/svg"
   xmlns:svg="http://www.w3.org/2000/svg">
  <sodipodi:namedview
     id="namedview2382"
     pagecolor="#ffffff"
     bordercolor="#666666"
     borderopacity="1.0"
     inkscape:pageshadow="2"
     inkscape:pageopacity="0.0"
     inkscape:pagecheckerboard="0"
     inkscape:document-units="mm"
     showgrid="false"
     fit-margin-top="0"
     fit-margin-left="0"
     fit-margin-right="0"
     fit-margin-bottom="0"
     inkscape:zoom="0.67882997"
     inkscape:cx="-53.032426"
     inkscape:cy="385.95821"
     inkscape:window-width="1312"
     inkscape:window-height="942"
     inkscape:window-x="0"
     inkscape:window-y="25"
     inkscape:window-maximized="0"
     inkscape:current-layer="layer1" />
  <defs
     id="defs2377" />
  <g
     inkscape:label="Layer 1"
     inkscape:groupmode="layer"
     id="layer1"
     transform="translate(-181.07445,-46.3817)">
    <g
       id="g13159"
       transform="matrix(0.91506094,0,0,-0.91506094,194.9188,70.739155)"
       style="fill:#aa0000;fill-opacity:1;stroke:#555151;stroke-width:0.437129;stroke-miterlimit:4;stroke-dasharray:none;stroke-opacity:1">
      <path
         d="m 0,0 0.021,0.074 -0.083,0.082 -0.1,0.061 0.013,0.127 0.075,0.147 L -0.397,0.486 -0.723,0.53 -0.581,0.768 -0.409,0.99 -0.385,1.094 -0.436,1.192 -0.531,1.263 -0.64,1.292 -0.792,1.234 -0.937,1.155 -1.032,1.128 -1.135,1.132 -1.378,1.192 -1.588,1.334 -1.677,1.542 -1.777,1.736 -1.982,1.828 -2.206,1.849 -2.29,1.824 -2.625,1.66 -2.673,1.568 -2.705,1.458 -2.839,1.256 -3.002,1.182 -3.195,1.184 -3.263,1.143 -3.312,1.065 -3.368,1.029 -3.645,0.952 -3.813,0.858 -3.794,0.792 -3.756,0.734 -3.78,0.626 -4.036,0.703 -4.112,0.713 -4.202,0.67 -4.257,0.454 l 0.153,-0.1 0.242,-0.207 0.177,-0.123 0.045,-0.069 0.126,-0.273 h -0.164 l -0.131,0.082 -0.09,0.186 -0.179,0.15 -0.03,-0.131 0.009,-0.131 0.04,-0.109 0.174,-0.187 0.073,-0.113 -0.033,-0.161 -0.071,-0.149 0.151,0.102 0.177,0.2 0.187,0.099 0.177,-0.046 0.074,-0.084 0.094,-0.058 0.095,-0.004 0.077,0.053 0.037,0.109 -0.013,0.109 -0.049,0.085 -0.084,0.028 -0.105,-0.04 -0.085,0.009 -0.012,0.162 0.009,0.162 -0.084,0.185 0.091,0.08 0.11,0.066 0.09,-0.045 0.169,-0.125 0.107,-0.284 0.192,-0.24 0.04,-0.196 -0.129,-0.154 0.119,-0.062 0.139,-0.014 -0.144,-0.327 -0.178,-0.302 -0.121,-0.171 -0.137,-0.151 -0.19,-0.057 -0.035,-0.048 10e-4,-0.282 0.028,-0.201 -0.041,-0.159 0.065,-0.078 0.081,-0.066 0.096,-0.189 -0.027,-0.226 -0.024,-0.074 -0.06,-0.028 -0.204,-0.056 0.096,-0.231 0.09,-0.037 0.108,-0.013 0.502,-0.175 0.06,0.077 0.041,0.099 -0.142,0.169 -0.045,0.101 -0.023,0.112 0.051,0.205 0.103,0.204 0.076,0.105 0.107,-10e-4 0.111,-0.022 0.037,-0.07 -10e-4,-0.094 -0.03,-0.04 -0.055,-0.012 -0.081,-0.041 0.008,-0.102 0.118,-0.284 0.029,-0.227 -0.057,-0.224 -0.041,-0.067 -0.057,-0.055 -0.036,-0.07 0.002,-0.087 0.392,0.192 0.354,0.286 -0.114,0.241 0.064,0.117 0.125,0.011 0.198,-0.064 0.158,-0.01 0.222,0.529 0.027,0.214 -0.026,0.209 0.082,0.236 0.046,0.229 0.06,0.212 0.082,0.205 0.091,0.28 0.129,0.255 0.442,0.503 0.046,0.077 0.011,0.074 -0.177,0.11 z M 4.979,1.849 4.908,1.959 4.871,2.083 4.876,2.453 4.619,2.429 4.37,2.514 4.12,2.641 3.861,2.721 3.631,2.7 3.409,2.616 3.194,2.475 3.103,2.466 3.007,2.488 3.081,2.267 3.051,2.135 2.97,2.029 2.771,1.939 2.551,1.948 2.458,1.932 2.268,1.859 2.16,1.848 2.011,1.989 1.901,2.173 1.802,2.188 1.629,2.038 1.529,1.979 1.472,1.805 1.406,1.696 1.375,1.572 1.274,1.368 1.081,1.253 0.773,1.01 0.633,0.924 0.319,0.773 0.172,0.663 H 0.268 L 0.62,0.817 0.79,0.853 0.858,0.845 0.845,0.646 0.917,0.592 1.036,0.568 1.043,0.493 1.025,0.404 0.975,0.343 0.972,0.233 0.886,0.099 1.003,-0.005 1.007,-0.188 1.2,-0.182 1.394,-0.216 1.271,-0.497 l 0.091,0.027 0.203,-0.048 0.119,0.005 0.194,0.175 0.069,0.285 0.064,0.057 0.09,0.032 0.081,0.11 0.17,0.335 L 2.435,0.703 3.06,1.007 3.157,1.018 3.461,0.971 3.649,0.881 3.948,0.556 4.053,0.476 4.096,0.677 4.163,0.863 4.278,1.039 4.405,1.204 4.715,1.448 5.059,1.632 4.943,1.687 Z m -6.6,-6.216 -0.05,-0.053 -0.117,-0.24 -0.014,-0.19 -0.125,-0.258 0.003,-0.114 0.158,0.021 0.06,0.263 0.117,0.222 0.045,0.293 -0.04,0.074 z m -2.604,-4.601 -0.037,-0.029 -0.03,-0.059 -0.092,-0.065 -0.082,-0.004 -0.256,-0.07 -0.13,-0.09 -0.004,-0.06 -0.056,-0.038 -0.095,-0.026 0.199,-0.095 0.165,-0.142 0.156,0.158 -0.025,0.089 0.033,0.034 0.1,0.052 0.112,0.121 0.121,0.098 0.125,0.04 0.007,0.074 -0.046,0.093 z m 0.197,6.385 -0.036,-0.156 0.056,0.034 0.137,0.17 -0.012,0.089 z m 1.427,-2.483 -0.197,-0.152 0.104,-0.244 0.113,-0.046 0.207,0.043 0.091,0.205 -0.054,0.043 z m -0.543,4.026 -0.051,0.1 -0.285,-0.039 0.02,-0.106 -0.076,-0.246 0.065,-0.065 0.003,-0.043 -0.102,-0.096 0.059,-0.031 0.019,-0.068 0.142,0.071 0.211,0.221 z m 0.333,-0.135 0.068,0.068 0.078,0.116 -0.174,0.023 -0.224,-0.129 0.027,-0.064 0.065,-0.023 z M 0.763,1.686 0.855,1.752 0.916,1.819 0.891,1.84 0.681,1.81 0.594,1.884 0.488,1.889 0.476,1.849 0.49,1.738 0.596,1.735 Z m 17.392,12.182 -0.002,0.111 -0.023,0.111 -0.077,0.242 -0.103,0.231 -0.146,0.476 -0.273,0.389 -0.187,0.121 -0.144,0.172 -0.058,0.24 -0.031,0.248 -0.024,0.55 0.036,0.332 0.064,0.33 -0.337,-0.109 -0.072,0.041 -0.222,0.178 -0.101,0.043 -0.204,0.065 -0.082,-0.056 -0.058,-0.117 -0.104,-0.369 -0.002,-0.246 0.487,0.116 0.08,0.033 0.073,0.061 0.082,0.014 0.079,-0.081 0.032,-0.221 -0.067,-0.245 -0.076,-0.138 -0.116,-0.089 -0.33,0.125 -0.108,-0.024 -0.055,-0.117 -0.081,-0.087 -0.094,-0.009 -0.084,0.059 -0.041,0.076 -0.072,0.562 -0.022,0.086 -0.115,0.035 -0.119,-0.013 -0.103,0.008 -0.099,0.043 -0.075,-0.056 -0.053,-0.092 0.052,-0.332 -0.032,-0.125 -0.082,-0.217 -0.051,-0.079 -0.093,-0.073 -0.1,-0.05 -0.109,-0.009 -0.102,-0.031 -0.112,-0.128 -0.079,-0.159 0.002,-0.138 0.072,-0.255 0.091,-0.212 -0.006,-0.116 -0.07,-0.262 -0.116,-0.245 -0.062,-0.076 -0.087,-0.042 -0.127,-0.015 -0.025,-0.081 0.125,-0.091 0.145,0.019 0.098,-0.004 0.09,-0.064 0.107,-0.224 0.019,-0.264 -0.03,-0.34 -0.021,-0.111 -0.047,-0.112 -0.06,-0.1 -0.07,-0.08 L 14.4,12.788 14.34,12.527 14.201,12.057 14.105,11.86 13.944,11.669 13.801,11.463 13.693,11.261 13.614,11.046 13.558,10.771 13.478,10.508 13.41,10.417 13.199,10.229 12.546,9.885 12.426,9.74 12.339,9.509 12.229,9.295 12.09,9.111 11.938,8.945 11.525,8.584 11.341,8.491 11.146,8.445 10.791,8.266 10.07,8.032 10.013,7.976 9.761,7.657 9.679,7.623 9.586,7.622 9.365,7.665 9.172,7.795 9.165,7.915 9.175,8.048 9.132,8.187 8.961,8.375 9.005,8.488 9.109,8.546 9.225,8.587 9.416,8.719 9.751,9.039 9.758,9.139 9.725,9.215 9.5,9.164 9.073,8.989 8.859,8.924 8.635,8.543 8.688,8.03 8.597,7.599 8.34,7.248 7.984,6.814 7.809,6.662 7.618,6.529 7.458,6.31 7.347,6.051 7.376,5.812 7.508,5.594 7.365,5.419 7.161,5.264 6.966,5.147 6.759,5.052 6.617,5.082 6.12,5.098 6.014,5.149 5.949,5.233 6.016,5.372 6.01,5.5 5.929,5.539 5.845,5.551 5.317,5.379 4.548,5.307 4.332,5.205 4.111,5.126 3.69,5.061 3.472,5.035 3.254,5.036 3.03,5.069 2.813,5.04 2.705,4.989 2.599,4.961 2.401,5.161 2.202,5.166 1.779,5.068 1.461,4.941 1.373,4.878 1.23,4.65 0.86,4.343 0.582,4.07 0.398,3.957 0.229,3.821 0.046,3.637 -0.147,3.468 -0.367,3.347 -0.595,3.242 -0.763,3.109 -0.912,2.946 -1.053,2.832 -1.22,2.792 -1.454,2.82 -1.686,2.79 -1.779,2.703 -1.865,2.601 -1.893,2.525 -1.839,1.946 -1.699,2.009 -1.563,2.037 -1.421,1.945 -1.272,1.89 -1.11,1.924 -0.956,2.002 -0.833,2.034 -0.355,2.1 -0.314,2.086 0.276,1.703 0.378,1.669 0.4,1.882 0.478,2.06 0.543,2.454 0.678,2.653 0.874,2.71 1.078,2.576 1.299,2.493 1.512,2.511 1.953,2.662 2.176,2.607 2.298,2.691 2.524,2.775 2.723,2.872 2.775,2.866 2.964,2.936 3.143,2.979 3.501,2.997 3.667,3.063 3.859,3.197 4.101,3.409 4.17,3.442 4.379,3.462 4.577,3.525 4.778,3.558 5.061,3.547 5.142,3.51 5.403,3.336 5.605,3.274 5.888,3.318 6.172,3.321 6.281,3.247 6.273,3.103 6.225,3.009 6.089,2.839 6.01,2.766 5.769,2.636 5.711,2.579 5.774,2.364 5.761,2.009 5.847,1.789 5.993,1.603 6.156,1.433 6.242,1.245 6.348,1.093 6.786,0.959 7.185,1.109 7.467,1.546 7.819,2.187 7.932,2.353 8.319,2.517 8.767,2.601 8.878,2.651 8.927,2.765 8.926,2.873 8.855,2.935 8.448,3.188 8.298,3.37 8.378,3.596 8.582,3.992 8.679,4.072 8.788,4.127 8.874,4.146 8.956,4.097 8.876,3.981 8.882,3.847 8.934,3.629 8.909,3.481 8.984,3.433 9.041,3.458 9.024,3.648 9.075,3.688 9.152,3.646 9.2,3.548 9.316,3.534 9.544,3.566 9.639,3.562 9.675,3.47 9.661,3.421 9.28,3.254 9.253,3.176 l 0.463,0.109 0.407,0.056 0.37,-0.034 0.209,0.007 0.207,-0.02 0.38,-0.09 0.115,0.276 0.173,0.235 0.152,0.137 0.138,0.147 0.05,0.116 0.072,0.086 0.258,0.077 L 12.43,4.22 12.579,4.076 12.397,3.974 12.4,3.771 12.321,3.413 12.383,3.314 12.46,3.25 l 0.106,0.019 0.156,0.142 0.059,0.076 0.127,0.21 0.066,0.239 -0.012,0.287 0.033,0.117 0.052,0.115 0.156,0.137 0.206,0.041 0.2,0.001 0.162,-0.113 0.13,-0.207 0.071,0.015 0.101,0.148 0.024,0.063 -0.079,0.043 -0.063,0.094 -0.028,0.183 0.213,0.175 0.01,0.052 -0.006,0.06 0.029,0.128 0.088,0.094 0.135,0.021 h 0.14 L 14.638,5.318 14.733,5.22 14.715,5.128 14.608,5.015 14.458,4.888 14.39,4.729 14.245,4.63 14.291,4.499 14.251,4.172 14.275,4.045 14.196,3.937 14.277,3.852 14.415,3.82 l 0.071,0.097 0.18,0.186 0.18,0.118 0.281,0.12 0.072,0.054 0.07,0.081 0.042,0.093 -0.006,0.262 0.08,0.235 0.252,0.249 0.076,0.06 0.425,0.131 -0.11,0.118 -0.097,0.129 -0.249,0.439 -0.057,0.171 -0.03,0.183 0.032,0.157 0.05,0.16 v 0.123 l 0.014,0.118 0.186,0.474 0.111,0.237 0.087,0.09 0.1,0.073 0.133,0.158 0.059,0.233 0.064,0.732 -0.06,0.481 -0.079,0.258 -0.058,0.265 0.002,0.215 0.06,0.201 0.208,0.342 0.057,0.054 0.263,0.09 0.205,-0.003 0.18,0.051 0.074,0.196 0.019,0.282 0.049,0.274 0.06,0.113 0.077,0.102 0.04,0.111 0.026,0.12 0.063,0.043 0.088,0.009 0.062,0.038 0.054,0.048 0.065,0.105 0.105,0.045 0.016,0.226 0.122,0.443 0.029,0.384 -0.025,0.123 z m 6.789,7.877 -0.14,-0.016 -0.163,-0.134 -0.172,-0.105 -0.094,0.005 -0.172,0.045 -0.123,0.351 -0.106,0.253 -0.134,0.185 -0.069,0.225 0.044,0.231 0.215,0.455 0.193,0.34 0.032,0.113 v 0.102 l -0.049,0.015 -0.435,-0.371 -0.415,-0.407 -0.132,-0.092 -0.151,-0.026 -0.214,0.004 -0.207,0.043 -0.687,0.335 -0.173,0.034 -0.102,-0.011 -0.225,0.012 -0.118,0.032 -0.189,0.198 -0.258,0.124 -0.403,0.264 -0.386,0.306 -0.343,0.3 -0.327,0.331 -0.519,0.681 -0.442,0.448 -0.28,0.252 -0.064,0.101 -0.078,0.059 -0.107,-0.059 -0.089,-0.1 -0.092,-0.044 -0.199,-0.039 -0.025,-0.056 -0.003,-0.063 -0.106,-0.207 -0.02,-0.223 0.132,-0.233 0.114,-0.246 0.114,-0.499 -0.039,-0.519 -0.08,-0.246 -0.1,-0.239 -0.03,-0.539 -0.079,-0.221 -0.278,-0.375 -0.088,-0.233 0.001,-0.286 0.025,-0.287 -0.069,-0.223 -0.141,-0.176 -0.092,-0.031 -0.193,-0.012 -0.333,0.046 -0.243,0.01 -0.069,0.021 -0.355,0.212 -0.176,0.058 -0.17,-0.077 -0.024,-0.145 0.032,-0.152 0.162,-0.257 -0.099,-0.209 -0.187,-0.191 -0.188,-0.155 -0.198,-0.136 -0.18,-0.105 -0.116,-0.029 -0.108,-0.049 -0.055,-0.146 -0.058,-0.291 -0.014,-0.131 0.027,-0.238 0.107,-0.19 0.234,-0.197 0.058,-0.069 0.094,-0.334 -0.044,-0.237 -0.113,-0.232 -0.047,-0.257 0.024,-0.119 0.05,-0.102 0.088,-0.086 0.114,-0.023 0.22,0.071 0.207,0.136 0.084,0.103 0.104,0.226 0.188,0.208 0.12,0.102 0.283,-0.12 0.164,-0.036 0.167,-0.013 0.143,0.049 0.131,0.097 -0.078,0.093 -0.354,0.28 -0.322,0.3 -0.089,0.016 -0.192,-0.011 -0.091,0.028 -0.2,0.15 -0.164,0.2 -0.02,0.089 0.016,0.091 0.048,0.128 0.063,0.113 0.172,0.157 0.121,0.022 0.125,0.004 0.168,-0.034 0.14,-0.121 0.29,-0.305 0.069,-0.038 0.759,0.445 0.803,0.07 0.427,-0.233 0.759,-0.464 0.719,-0.303 0.371,-0.208 0.225,-0.047 0.076,0.081 0.064,0.101 0.024,0.144 0.009,0.15 0.066,0.228 0.11,0.203 0.273,0.391 0.328,0.325 0.374,0.29 0.411,0.202 0.188,0.023 0.388,-0.089 0.207,0.007 0.318,0.102 0.206,0.016 0.195,0.067 0.177,0.125 0.186,0.102 0.212,0.09 0.103,0.008 0.182,-0.013 0.058,0.04 0.157,0.216 0.182,0.114 0.195,0.093 z m -6.548,-34.106 -0.032,-0.01 0.114,-0.204 0.032,10e-4 0.025,0.063 -0.073,0.118 z M 1.157,2.228 1.124,2.251 1.095,2.344 1.059,2.327 1.009,2.241 0.945,2.171 1.104,2.146 Z M 5.459,3.099 5.357,3.046 5.23,2.952 5.092,2.74 4.931,2.59 4.959,2.495 5.044,2.417 5.213,2.405 5.409,2.578 5.359,2.801 5.539,3.097 Z m 8.698,-2.868 -0.015,-0.036 0.011,-0.058 0.088,-0.066 0.031,0.021 0.059,0.075 -0.117,0.072 z m -0.736,3.336 -0.005,-0.111 0.046,-0.062 0.096,-0.021 0.019,0.095 -0.055,0.1 z M 4.18,2.852 4.294,2.945 4.326,2.934 4.359,2.975 4.396,3.053 4.313,3.078 4.054,3.047 4.064,3 4.154,2.941 Z M 2.505,6.412 2.588,6.489 2.607,6.577 2.452,6.77 2.291,6.673 2.262,6.548 2.351,6.437 Z m -7.272,-3.729 0.122,-0.07 0.037,0.098 -0.007,0.127 0.169,0.252 -0.011,0.152 0.02,0.07 L -4.451,3.356 -4.489,3.387 -4.716,3.226 -4.723,3.169 -4.71,3.052 -4.822,2.745 Z M -4.54,0.497 -4.552,0.444 -4.636,0.333 h 0.093 l 0.127,0.095 0.029,0.123 0.112,0.154 L -4.333,0.699 -4.47,0.646 Z m 0.673,0.99 -0.035,0.162 -0.107,0.059 -0.031,-0.059 -0.046,-0.18 0.094,-0.066 z m 15.325,8.419 -0.104,-0.052 0.043,-0.02 0.171,0.005 0.277,0.171 0.141,0.337 -0.219,0.021 0.016,0.102 0.085,0.281 -0.012,0.119 -0.076,-0.051 -0.279,-0.272 -0.103,-0.173 -0.006,-0.175 0.136,-0.008 10e-4,-0.045 -0.062,-0.153 z m 5.314,15.633 0.126,0.016 0.061,0.069 -0.034,0.063 -0.106,0.12 -0.104,0.034 -0.106,-0.092 0.018,-0.117 z m -0.346,0.351 0.07,0.141 -0.005,0.151 -0.024,0.11 -0.1,0.035 -0.054,10e-4 0.019,-0.227 z m -2.845,-7.021 0.041,0.011 0.043,0.034 0.097,0.3 -0.114,-0.016 -0.116,-0.061 -0.036,-0.086 0.042,-0.164 z m -20.3,-31.095 -0.172,-0.165 -0.043,-0.084 -0.091,-0.047 -0.032,0.007 -0.063,0.063 -0.157,0.027 -0.023,-0.036 -0.008,-0.084 0.1,-0.072 -0.036,-0.074 -0.191,-0.173 -0.044,-0.033 -0.121,-0.028 -0.003,-0.243 -0.13,-0.209 -0.009,-0.086 0.006,-0.116 0.137,0.005 0.134,0.107 0.005,0.036 -0.037,0.072 0.008,0.089 0.106,0.123 0.101,0.018 -0.064,0.101 -0.004,0.119 0.152,0.027 0.156,0.149 0.161,0.036 0.065,0.105 0.173,0.089 0.094,0.13 0.038,0.177 -0.138,0.134 z m 1.915,2.613 -0.036,0.061 -0.117,0.031 0.072,-0.177 0.178,-0.038 -0.012,0.045 z m -0.718,8.977 -0.074,0.14 -0.058,0.026 -0.081,-0.008 -0.104,-0.03 -0.069,0.054 -0.029,-0.244 0.014,-0.068 0.065,-0.047 0.103,-0.038 0.072,0.102 0.056,0.019 0.132,0.012 z m 0.13,-9.433 -0.079,-0.024 -0.045,-0.108 0.031,-0.222 0.101,-0.05 0.076,0.036 0.034,0.096 -0.049,0.079 z m -8.561,-6.642 -0.072,-0.013 -0.09,0.034 -0.065,-0.064 0.092,-0.169 0.09,-0.024 0.088,0.044 0.106,0.301 0.056,0.096 -0.04,0.04 z m -0.824,-0.128 -0.003,-0.082 -0.131,-0.058 0.002,-0.057 0.124,-0.009 0.138,-0.033 0.113,0.027 0.071,0.083 0.013,0.072 -0.296,0.101 z m 9.749,16.825 -0.053,0.129 -0.025,0.131 -0.135,-0.329 -0.069,-0.034 0.041,-0.065 0.058,-0.181 0.046,0.022 0.062,0.177 0.076,0.036 0.051,0.094 z m -6.895,-16.037 -0.036,0.092 -0.057,0.037 -0.026,-0.266 0.164,-0.03 0.152,0.05 -0.076,0.064 z M -4.8,2.244 -4.699,2.462 -4.695,2.571 -4.916,2.644 -4.968,2.288 -4.917,2.162 Z"
         style="fill:#aa0000;fill-opacity:1;stroke:#555151;stroke-width:0.437129;stroke-linecap:round;stroke-linejoin:round;stroke-miterlimit:4;stroke-dasharray:none;stroke-opacity:1"
         id="path13161" />
    </g>
  </g>
</svg>
