<?xml version="1.0" encoding="UTF-8" standalone="no"?>
<!-- Created with Inkscape (http://www.inkscape.org/) -->

<svg
   width="63.757401mm"
   height="112.10666mm"
   viewBox="0 0 63.757401 112.10666"
   version="1.1"
   id="svg5"
   inkscape:version="1.1 (c4e8f9e, 2021-05-24)"
   sodipodi:docname="mtu.svg"
   xmlns:inkscape="http://www.inkscape.org/namespaces/inkscape"
   xmlns:sodipodi="http://sodipodi.sourceforge.net/DTD/sodipodi-0.dtd"
   xmlns="http://www.w3.org/2000/svg"
   xmlns:svg="http://www.w3.org/2000/svg">
  <sodipodi:namedview
     id="namedview7"
     pagecolor="#ffffff"
     bordercolor="#666666"
     borderopacity="1.0"
     inkscape:pageshadow="2"
     inkscape:pageopacity="0.0"
     inkscape:pagecheckerboard="0"
     inkscape:document-units="mm"
     showgrid="false"
     inkscape:zoom="0.042426873"
     inkscape:cx="-1697.0376"
     inkscape:cy="-966.36866"
     inkscape:window-width="1920"
     inkscape:window-height="942"
     inkscape:window-x="0"
     inkscape:window-y="25"
     inkscape:window-maximized="0"
     inkscape:current-layer="layer1"
     fit-margin-top="0"
     fit-margin-left="0"
     fit-margin-right="0"
     fit-margin-bottom="0" />
  <defs
     id="defs2">
    <clipPath
       clipPathUnits="userSpaceOnUse"
       id="clipPath2236">
      <rect
         style="fill:#00ffff;fill-opacity:1;stroke-width:0.564999;stroke-linecap:round;stroke-linejoin:round"
         id="rect2238"
         width="160.19299"
         height="45.992119"
         x="-1410.5552"
         y="865.08069"
         ry="0.085788772" />
    </clipPath>
    <clipPath
       clipPathUnits="userSpaceOnUse"
       id="clipPath2400">
      <rect
         style="fill:#00ffff;fill-opacity:1;stroke-width:0.564999;stroke-linecap:round;stroke-linejoin:round"
         id="rect2402"
         width="104.06693"
         height="142.26378"
         x="-1558.6653"
         y="841.5"
         ry="0.085788772" />
    </clipPath>
    <clipPath
       clipPathUnits="userSpaceOnUse"
       id="clipPath2708">
      <rect
         style="fill:none;fill-opacity:1;stroke:#000000;stroke-width:0.369869;stroke-linecap:round;stroke-linejoin:round;stroke-opacity:1"
         id="rect2710"
         width="95.286964"
         height="128.09891"
         x="-1553.5895"
         y="848.25647"
         ry="0.056845054" />
    </clipPath>
    <clipPath
       clipPathUnits="userSpaceOnUse"
       id="clipPath2953">
      <rect
         style="fill:#000000;fill-opacity:1;stroke:#000000;stroke-width:0.704924;stroke-linecap:round;stroke-linejoin:round;stroke-opacity:1"
         id="rect2955"
         width="318.02914"
         height="318.02911"
         x="-2034.5322"
         y="659.37506"
         ry="0.11619066" />
    </clipPath>
    <clipPath
       clipPathUnits="userSpaceOnUse"
       id="clipPath3137">
      <rect
         style="fill:#000000;fill-opacity:1;stroke:#000000;stroke-width:0.658664;stroke-linecap:round;stroke-linejoin:round;stroke-opacity:1"
         id="rect3139"
         width="199.13596"
         height="199.13596"
         x="-1540.4288"
         y="525.43787"
         ry="0.10262583" />
    </clipPath>
  </defs>
  <g
     inkscape:label="Layer 1"
     inkscape:groupmode="layer"
     id="layer1"
     transform="translate(1085.8769,-1337.1492)">
    <path
       style="fill:#000000;stroke-width:0.264583"
       id="path900"
       d="" />
    <path
       style="fill:#000000;stroke-width:0.264583"
       id="path880"
       d="" />
    <g
       id="g3416"
       inkscape:label="MTU_Logo_Colour_CMYK 2"
       transform="matrix(0.35277777,0,0,-0.35277777,-1128.1785,1673.7815)">
      <g
         id="g3438"
         transform="matrix(1.761403,0,0,1.761403,298.92101,-516.84098)">
        <path
           d="m 0.93978148,751.66484 c -0.678,-1.206 -1.527,-2.478 -2.59799998,-3.803 -6.417,-7.93 -18.0300005,-14.464 -34.5210005,-19.423 -3.811,-1.146 -7.945,-2.216 -12.278,-3.186 v -16.709 c 48.26300048,15.313 49.39700048,37.647 49.39700048,42.299 z m -3.07899998,10.278 H -48.457219 v -15.946 c 29.185,1.874 41.4060005,9.134 46.3180005,15.946 z m -34.8630005,-30.761 c -3.564,-1.068 -7.419,-2.072 -11.455,-2.992 v 14.934 c 18.225,1.157 41.0580005,5.314 49.39700048,17.896 0.16300002,-2.984 -1.13,-18.769 -37.94200048,-29.838"
           style="fill:#27adea;fill-opacity:1;fill-rule:nonzero;stroke:none"
           id="path3418" />
        <path
           d="m -63.327219,727.62084 -8.743,4.597 -8.742,-4.597 1.677,9.793 -7.453,8.372 10.206,0.002 4.312,8.743 4.313,-8.737 h 9.958 l -2.478,-2.869 h -3.782 l 0.007,0.005 h -5.488 l -2.53,5.127 -2.524,-5.121 -5.614,-0.004 4.134,-4.635 -0.935,-5.441 4.939,2.597 4.94,-2.597 -0.933,5.424 1.537,1.779 h 3.783 l -2.264,-2.625 z m -38.299001,34.322 v -11.1 c -0.089,-4.729 1.136,-26.986 49.399001,-42.299 v 53.399 h -49.399001"
           style="fill:#27adea;fill-opacity:1;fill-rule:nonzero;stroke:none"
           id="path3420" />
        <path
           d="m -37.651219,808.21984 h 27.8820005 v 2.864 H -37.651219 Z m 0,-10.477 h 27.8820005 v 2.863 H -37.651219 Z m 0,-20.954 h 27.8820005 v 2.865 H -37.651219 Z m 0,10.477 h 27.8820005 v 2.865 H -37.651219 Z m 38.62700048,47.859 v -69.414 H -48.457219 v 58.199 l 49.43300048,11.215"
           style="fill:#e11631;fill-opacity:1;fill-rule:nonzero;stroke:none"
           id="path3422" />
        <path
           d="m -88.026219,786.47484 -2.837,1.706 v 8.453 l 7.81,-4.696 6.205,4.449 6.249,-4.47 7.773,4.855 v -8.462 l -2.838,-1.772 v 5.317 l -5.033,-3.132 -6.176,4.417 -6.075,-4.359 -5.078,3.054 z m 0,11.628 -2.837,1.705 v 8.453 l 7.81,-4.695 6.205,4.448 6.249,-4.469 7.773,4.854 v -8.461 l -2.838,-1.773 v 5.317 l -5.033,-3.13 -6.176,4.415 -6.075,-4.357 -5.078,3.053 z m 25.2,-12.81 v -11.303 h -2.838 v 6.386 l -5.033,-3.132 -6.176,4.417 -6.075,-4.359 -5.078,3.054 v -6.366 h -2.837 v 11.165 l 7.81,-4.696 6.205,4.449 6.249,-4.47 z m -38.800001,26.555 v -46.137 h 49.399001 v 57.344 z m 49.399001,14.836 -35.562,-8.068 35.562,16.556 v -8.488"
           style="fill:#eea60b;fill-opacity:1;fill-rule:nonzero;stroke:none"
           id="path3424" />
      </g>
      <path
         d="m 273.81951,636.45054 c 13.8794,0 25.16888,9.01097 25.16888,24.0263 v 43.85575 H 285.2575 v -44.12173 c 0,-6.01433 -5.42254,-10.90825 -11.43799,-10.90825 h -1.07054 c -6.01433,0 -11.43466,4.89392 -11.43466,10.90825 v 44.12173 h -13.73422 v -43.85575 c 0,-15.01533 11.2917,-24.0263 25.16888,-24.0263 z m -52.36248,55.1951 v -54.22762 h -14.28279 v 54.22762 h -17.76262 v 12.68695 h 49.80581 v -12.68695 z m -53.81647,-10.6589 h -0.28038 l -16.51809,-28.83599 -16.42167,29.49428 h -0.2826 v -44.22701 h -13.43943 v 66.91457 h 15.13058 l 15.01312,-26.00448 h 0.18729 l 14.82583,26.00448 h 15.22368 v -66.91457 h -13.43833 v 43.56872"
         style="fill:#163f7e;fill-opacity:1;fill-rule:nonzero;stroke:none;stroke-width:1.10822"
         id="path3426"
         sodipodi:nodetypes="ssccssssccsssccccccccccccccccccccccccc" />
    </g>
  </g>
</svg>
